<?xml version="1.0" encoding="UTF-8" standalone="no"?>
<svg
   xmlns:dc="http://purl.org/dc/elements/1.1/"
   xmlns:cc="http://creativecommons.org/ns#"
   xmlns:rdf="http://www.w3.org/1999/02/22-rdf-syntax-ns#"
   xmlns:svg="http://www.w3.org/2000/svg"
   xmlns="http://www.w3.org/2000/svg"
   xmlns:sodipodi="http://sodipodi.sourceforge.net/DTD/sodipodi-0.dtd"
   xmlns:inkscape="http://www.inkscape.org/namespaces/inkscape"
   width="220px"
   height="80px"
   viewBox="0 0 220 80"
   version="1.1"
   id="svg26"
   sodipodi:docname="spotify.svg"
   inkscape:export-filename="C:\Users\xivarsribes\Personal\wp-softcatala\static\images\podcasts\pocketcasts_large_light.png"
   inkscape:export-xdpi="128"
   inkscape:export-ydpi="128"
   inkscape:version="0.92.3 (2405546, 2018-03-11)">
  <metadata
     id="metadata32">
    <rdf:RDF>
      <cc:Work
         rdf:about="">
        <dc:format>image/svg+xml</dc:format>
        <dc:type
           rdf:resource="http://purl.org/dc/dcmitype/StillImage" />
        <dc:title>Badges/pocketcasts_large_light</dc:title>
      </cc:Work>
    </rdf:RDF>
  </metadata>
  <defs
     id="defs30" />
  <sodipodi:namedview
     pagecolor="#ffffff"
     bordercolor="#666666"
     borderopacity="1"
     objecttolerance="10"
     gridtolerance="10"
     guidetolerance="10"
     inkscape:pageopacity="0"
     inkscape:pageshadow="2"
     inkscape:window-width="1920"
     inkscape:window-height="1017"
     id="namedview28"
     showgrid="false"
     inkscape:zoom="2.9545455"
     inkscape:cx="25.723077"
     inkscape:cy="107.6874"
     inkscape:window-x="-8"
     inkscape:window-y="-8"
     inkscape:window-maximized="1"
     inkscape:current-layer="Group-2-Copy-5" />
  <!-- Generator: Sketch 54.1 (76490) - https://sketchapp.com -->
  <title
     id="title2">Badges/pocketcasts_large_light</title>
  <desc
     id="desc4">Created with Sketch.</desc>
  <g
     id="Badges/pocketcasts_large_light"
     style="fill:none;fill-rule:evenodd;stroke:none;stroke-width:1">
    <path
       d="M 12.819426,0.5 C 8.8308252,0.5 7.1212534,0.83013354 5.3515709,1.7765701 3.8090755,2.6015057 2.6015057,3.8090755 1.7765701,5.3515709 0.83013354,7.1212534 0.5,8.8308252 0.5,12.819426 v 54.361148 c 0,3.988601 0.33013354,5.698173 1.2765701,7.467855 0.8249356,1.542495 2.0325054,2.750065 3.5750008,3.575001 C 7.1212534,79.169866 8.8308252,79.5 12.819426,79.5 H 207.18057 c 3.9886,0 5.69818,-0.330134 7.46786,-1.27657 1.54249,-0.824936 2.75006,-2.032506 3.575,-3.575001 C 219.16987,72.878747 219.5,71.169175 219.5,67.180574 V 12.819426 c 0,-3.9886008 -0.33013,-5.6981726 -1.27657,-7.4678551 -0.82494,-1.5424954 -2.03251,-2.7500652 -3.575,-3.5750008 C 212.87875,0.83013354 211.16917,0.5 207.18057,0.5 Z"
       id="Rectangle-4"
       inkscape:connector-curvature="0"
       style="fill:#ffffff;stroke:#b8c3c9" />
  </g>
  <g
     id="spotify-podcast-badge-wht-blk-330x80"
     style="fill:none;fill-rule:evenodd;stroke:none;stroke-width:1"
     transform="translate(-135.21566,172)">
    <g
       id="Group-2-Copy-5">
      <g
         id="g953"
         transform="translate(4.73846)">
        <g
           transform="translate(0,2.8732874)"
           id="g946">
          <text
             xml:space="preserve"
             style="font-style:normal;font-weight:normal;font-size:40px;line-height:1.25;font-family:sans-serif;letter-spacing:0px;word-spacing:0px;fill:#000000;fill-opacity:1;stroke:none"
             x="83.986794"
             y="27.492308"
             id="text841"
             transform="translate(135.21566,-172)"><tspan
               sodipodi:role="line"
               id="tspan839"
               x="83.986794"
               y="27.492308"
               style="font-style:normal;font-variant:normal;font-weight:600;font-stretch:normal;font-size:20px;font-family:'Open Sans';-inkscape-font-specification:'Open Sans Semi-Bold';fill:#808080">Escolta'l al</tspan></text>
          <path
             id="Combined-Shape"
             d="m 230.87796,-127.65167 c 4.91617,1.20218 6.92104,3.06831 6.92104,6.44249 0,3.99239 -3.03382,6.57213 -7.72868,6.57213 -3.31874,0 -6.39386,-1.1859 -8.89464,-3.43058 -0.10688,-0.0949 -0.11861,-0.25874 -0.0259,-0.36846 l 2.20915,-2.64372 c 0.0452,-0.0547 0.11023,-0.0878 0.18111,-0.0937 0.0675,-0.004 0.14066,0.0174 0.19396,0.0634 2.14915,1.87145 4.07057,2.66926 6.42568,2.66926 2.12068,0 3.43847,-0.92268 3.43847,-2.40688 0,-1.33969 -0.65164,-2.08866 -4.51291,-2.983 -4.53662,-1.10256 -7.16187,-2.53092 -7.16187,-6.56484 0,-3.76171 3.0433,-6.39085 7.4002,-6.39085 2.96321,0 5.49831,0.88312 7.7496,2.69957 0.10912,0.0881 0.13117,0.24639 0.0502,0.36144 l -1.97026,2.79274 c -0.0416,0.0589 -0.10382,0.0977 -0.17443,0.10832 -0.0706,0.0112 -0.14232,-0.006 -0.19953,-0.0488 -1.89185,-1.41826 -3.69578,-2.10718 -5.51534,-2.10718 -1.87705,0 -3.13958,0.90696 -3.13958,2.25534 0,1.42668 0.71861,2.10578 4.75374,3.07336 z m 20.95092,4.5222 c 0,-2.8034 -1.78552,-4.83733 -4.24444,-4.83733 -2.47064,0 -4.3343,2.07883 -4.3343,4.83733 0,2.75878 1.86366,4.83734 4.3343,4.83734 2.49911,0 4.24444,-1.9882 4.24444,-4.83734 z m -3.40805,-8.52384 c 3.78117,0 7.60894,2.92771 7.60894,8.52384 0,5.59501 -3.82777,8.52189 -7.60894,8.52189 -2.03445,0 -3.70387,-0.7588 -5.08054,-2.31232 v 6.51938 c 0,0.14676 -0.11833,0.26631 -0.26429,0.26631 h -3.61289 c -0.14595,0 -0.264,-0.11955 -0.264,-0.26631 v -20.65423 c 0,-0.14676 0.11805,-0.26631 0.264,-0.26631 h 3.61289 c 0.14596,0 0.26429,0.11955 0.26429,0.26631 v 1.85883 c 1.37639,-1.65145 3.04553,-2.45739 5.08054,-2.45739 z m 17.42062,13.39092 c 2.61493,0 4.51291,-2.02046 4.51291,-4.80618 0,-2.77646 -1.9658,-4.86905 -4.57263,-4.86905 -2.5979,0 -4.48304,2.02215 -4.48304,4.80815 0,2.7745 1.95268,4.86708 4.54276,4.86708 z m 0,-13.39092 c 4.85338,0 8.65382,3.74403 8.65382,8.52384 0,4.79581 -3.82668,8.5536 -8.71353,8.5536 -4.83607,0 -8.62478,-3.73085 -8.62478,-8.4927 0,-4.81433 3.81494,-8.58474 8.68449,-8.58474 z m 19.05266,0.33225 c 0.14596,0 0.26344,0.11955 0.26344,0.26631 v 3.12246 c 0,0.14649 -0.11748,0.26603 -0.26344,0.26603 h -3.97597 v 7.51025 c 0,1.18618 0.5174,1.71515 1.6764,1.71515 0.7521,0 1.42495,-0.16248 2.12096,-0.51466 0.0806,-0.0401 0.17861,-0.0376 0.25732,0.0121 0.0779,0.0483 0.12558,0.1347 0.12558,0.22646 v 2.97346 c 0,0.0949 -0.0514,0.18409 -0.13369,0.23039 -1.0133,0.57779 -2.08859,0.84691 -3.38461,0.84691 -3.1873,0 -4.80342,-1.65538 -4.80342,-4.9204 v -8.07962 h -1.73723 c -0.14568,0 -0.26317,-0.11955 -0.26317,-0.26603 v -3.12247 c 0,-0.14676 0.11749,-0.2663 0.26317,-0.2663 h 1.73723 v -4.08752 c 0,-0.14677 0.11889,-0.26603 0.26512,-0.26603 h 3.61262 c 0.14596,0 0.26372,0.11926 0.26372,0.26603 v 4.08752 z m 13.8524,0.016 h 6.17227 c 0.10968,0 0.20819,0.0679 0.2467,0.17118 l 4.22043,11.07413 3.85317,-11.06683 c 0.0368,-0.10664 0.13786,-0.17848 0.25033,-0.17848 h 3.76137 c 0.0876,0 0.16771,0.0435 0.2174,0.11534 0.0499,0.073 0.0592,0.16528 0.0279,0.24722 l -6.26827,16.28722 c -1.30021,3.36183 -2.77484,4.61171 -5.44278,4.61171 -1.42607,0 -2.58032,-0.29718 -3.85877,-0.99339 -0.12223,-0.0662 -0.17191,-0.21608 -0.11358,-0.34376 l 1.22458,-2.70154 c 0.0293,-0.0676 0.0873,-0.11898 0.15628,-0.14368 0.0698,-0.0216 0.14595,-0.0157 0.21042,0.0199 0.6854,0.37716 1.35574,0.56826 1.99231,0.56826 0.78754,0 1.36439,-0.26041 1.951,-1.56951 l -5.16761,-12.45899 h -3.37344 v 12.46236 c 0,0.14676 -0.11889,0.26603 -0.26484,0.26603 h -3.61289 c -0.14568,0 -0.26345,-0.11927 -0.26345,-0.26603 v -12.46235 h -1.73584 c -0.14567,0 -0.26512,-0.11954 -0.26512,-0.26603 v -3.13846 c 0,-0.14648 0.11945,-0.26602 0.26512,-0.26602 h 1.73584 v -0.7689 c 0,-3.57314 1.76375,-5.46284 5.10119,-5.46284 1.37137,0 2.28729,0.22 3.00312,0.43384 0.1119,0.0345 0.1867,0.13834 0.1867,0.25508 v 3.06157 c 0,0.0853 -0.0394,0.16585 -0.10912,0.21608 -0.0678,0.0502 -0.15489,0.0634 -0.23833,0.037 -0.67759,-0.2273 -1.28262,-0.37772 -2.03584,-0.37772 -1.26309,0 -1.82626,0.65862 -1.82626,2.13552 z m -8.03063,-0.016 c 0.14567,0 0.26456,0.11955 0.26456,0.26631 v 15.85085 c 0,0.14676 -0.11889,0.26603 -0.26456,0.26603 h -3.61317 c -0.14597,0 -0.26457,-0.11927 -0.26457,-0.26603 v -15.85085 c 0,-0.14676 0.1186,-0.26631 0.26457,-0.26631 z m -1.78831,-7.21728 c 1.43081,0 2.5912,1.16542 2.5912,2.60472 0,1.43987 -1.16039,2.60641 -2.5912,2.60641 -1.43109,0 -2.59288,-1.16654 -2.59288,-2.60641 0,-1.4393 1.16179,-2.60472 2.59288,-2.60472 z m 31.80103,8.79409 h -0.66197 v 0.84887 h 0.66197 c 0.33042,0 0.52773,-0.16247 0.52773,-0.42485 0,-0.27614 -0.19731,-0.42402 -0.52773,-0.42402 z m 0.42921,1.21087 0.71918,1.01248 h -0.60643 l -0.64745,-0.92857 h -0.55648 v 0.92857 H 319.559 v -2.68357 h 1.19025 c 0.61982,0 1.02783,0.31878 1.02783,0.85589 0,0.44002 -0.25284,0.70885 -0.61927,0.8152 z m -0.56373,-2.5643 c -1.30244,0 -2.28812,1.0411 -2.28812,2.31596 0,1.27401 0.97871,2.30136 2.27473,2.30136 1.30216,0 2.28868,-1.04054 2.28868,-2.31596 0,-1.27429 -0.97927,-2.30136 -2.27529,-2.30136 z m -0.0134,4.87297 c -1.42998,0 -2.54264,-1.15475 -2.54264,-2.55701 0,-1.40255 1.12717,-2.57021 2.55603,-2.57021 1.4297,0 2.54264,1.15448 2.54264,2.55561 0,1.40226 -1.12634,2.57161 -2.55603,2.57161 z"
             inkscape:connector-curvature="0"
             style="fill:#000000"
             sodipodi:nodetypes="csscccccsscsscccccssccsssssssscsssssssscssssssssssscssscssccsscsscsssscsssscccscccsscccscccccscccsssscsssscsscssccsccsssssssssssssssccsssccccccccsscssssssssss" />
        </g>
        <path
           sodipodi:nodetypes="ccsccccccccccccccccccsssss"
           style="fill:#000000;fill-rule:evenodd;stroke:none;stroke-width:1"
           inkscape:connector-curvature="0"
           d="m 195.01265,-134.66674 c 1.03621,0.62017 2.37883,0.27585 2.99503,-0.76862 0.61591,-1.04279 0.27516,-2.39173 -0.76383,-3.0119 -8.6725,-5.1766 -22.39568,-5.6632 -30.65096,-3.14351 -1.15565,0.35302 -1.80701,1.58017 -1.45705,2.74194 0.34996,1.16121 1.57119,1.81674 2.726,1.46456 7.19145,-2.19473 19.61749,-1.7811 27.15081,2.71753 z m -0.2467,6.66305 c 0.52662,-0.86038 0.25703,-1.98847 -0.59945,-2.51885 -7.2135,-4.45765 -17.76528,-5.71203 -26.25359,-3.12218 -0.96169,0.29465 -1.50533,1.31611 -1.21481,2.28509 0.29247,0.96702 1.31025,1.51339 2.27389,1.2207 7.43034,-2.26797 17.00732,-1.14353 23.28788,2.73858 0.85648,0.52925 1.9778,0.25901 2.50608,-0.60334 z m -2.85967,6.39899 c 0.42001,-0.69033 0.20373,-1.59252 -0.48307,-2.01429 -6.16,-3.78501 -13.79658,-4.66588 -22.69903,-2.61931 -0.7856,0.17987 -1.27509,0.96533 -1.09537,1.75359 0.17889,0.78799 0.96001,1.28216 1.74393,1.10144 8.13501,-1.86865 15.04264,-1.10677 20.53091,2.26601 0.68596,0.42205 1.58291,0.20485 2.00263,-0.48744 z M 181.18845,-155.5 c 12.90745,0 23.37048,10.52102 23.37048,23.49972 0,12.97953 -10.46303,23.50028 -23.37048,23.50028 -12.90716,0 -23.37076,-10.52075 -23.37076,-23.50028 0,-12.9787 10.4636,-23.49972 23.37076,-23.49972 z"
           id="Combined-Shape-8" />
      </g>
    </g>
  </g>
  <text
     xml:space="preserve"
     style="font-style:normal;font-weight:normal;font-size:40px;line-height:1.25;font-family:sans-serif;letter-spacing:0px;word-spacing:0px;fill:#000000;fill-opacity:1;stroke:none"
     x="58.39867"
     y="193.10001"
     id="text841-6"><tspan
       sodipodi:role="line"
       id="tspan839-5"
       x="58.39867"
       y="193.10001"
       style="font-style:normal;font-variant:normal;font-weight:600;font-stretch:normal;font-size:20px;font-family:'Open Sans';-inkscape-font-specification:'Open Sans Semi-Bold';fill:#808080">Escolta'l al</tspan></text>
</svg>
