<svg xmlns="http://www.w3.org/2000/svg" viewBox="0 0 73 24"><path fill="#009BDF" fill-rule="evenodd" d="M13.888 11.703q0 1.753-.432 3.223-.43 1.47-1.254 2.548a5.6 5.6 0 0 1-2.05 1.672q-1.225.594-2.817.593-1.215 0-2.171-.606a4.4 4.4 0 0 1-1.497-1.551V24H2.535a2.62 2.62 0 0 1-1.753-.674 2.5 2.5 0 0 1-.566-.782A2.44 2.44 0 0 1 0 21.492v-8.79q0-1.808.418-3.318.419-1.51 1.308-2.588.89-1.08 2.265-1.672 1.375-.594 3.29-.594 1.455 0 2.67.607 1.213.608 2.09 1.605a7.4 7.4 0 0 1 1.361 2.292q.486 1.294.486 2.67m-3.722.944q0-2.589-.85-3.748-.848-1.16-2.601-1.16-1.51 0-2.306 1.173t-.796 3.061q0 2.185.985 3.37.984 1.188 2.602 1.187 1.321 0 2.144-1.065.822-1.065.822-2.818m16.579 6.769q-1.133 0-1.793-.62t-.661-1.807v-5.933q0-.889-.23-1.523-.228-.634-.62-1.025a2.45 2.45 0 0 0-.916-.58 3.3 3.3 0 0 0-1.12-.189q-.43 0-.89.176-.458.175-.849.58t-.634 1.051-.242 1.618v8.252h-1.187q-1.294 0-1.887-.647-.594-.648-.594-1.78V0h1.133q1.295 0 1.928.647.634.648.634 1.672v4.153q.188-.324.526-.66.336-.337.741-.621.404-.283.89-.472a2.7 2.7 0 0 1 .998-.189q2.831 0 4.395 1.632t1.564 4.732v8.522zm16.848-7.713q0 1.753-.431 3.223-.432 1.47-1.254 2.548a5.6 5.6 0 0 1-2.05 1.672q-1.227.594-2.818.593-1.213 0-2.17-.606a4.4 4.4 0 0 1-1.497-1.551V24H32.24a2.62 2.62 0 0 1-1.753-.674 2.5 2.5 0 0 1-.566-.782 2.44 2.44 0 0 1-.216-1.052v-8.79q0-1.808.418-3.318.419-1.51 1.308-2.588.891-1.08 2.265-1.672 1.376-.594 3.29-.594 1.456 0 2.67.607 1.214.608 2.09 1.605a7.4 7.4 0 0 1 1.362 2.292q.485 1.294.485 2.67m-3.721.944q0-2.589-.85-3.748-.849-1.16-2.602-1.16-1.51 0-2.306 1.173-.795 1.173-.795 3.061 0 2.185.984 3.37.984 1.188 2.602 1.187 1.322 0 2.144-1.065t.823-2.818M58.149 13.7q0 1.403-.512 2.48A5.4 5.4 0 0 1 56.248 18a6 6 0 0 1-2.022 1.12 7.7 7.7 0 0 1-2.414.377h-1.995q-5.151 0-5.151-4.396V1.7q.324-.108.917-.256a26 26 0 0 1 1.28-.283q.69-.135 1.403-.216t1.28-.081h2.24q1.32 0 2.426.337a5.8 5.8 0 0 1 1.915.97q.809.635 1.254 1.538t.445 2.036q0 1.537-.783 2.521-.78.985-2.157 1.389.702.19 1.295.62.593.432 1.038.984.445.553.687 1.2.243.648.243 1.24m-4.018-7.632q0-.593-.256-1.01a1.94 1.94 0 0 0-.66-.661 3 3 0 0 0-.918-.351 5 5 0 0 0-1.024-.108h-1.376q-.35 0-.782.067-.43.068-.809.122v4.18h2.832q1.24 0 2.117-.526.876-.526.876-1.713m.297 7.74q0-1.511-.769-2.077t-2.386-.566h-2.94v3.802q0 .486.459.823.458.336 1.16.337h1.51q1.509 0 2.238-.634.728-.633.728-1.685m18.304-.108q0 1.403-.512 2.48A5.4 5.4 0 0 1 70.83 18a6 6 0 0 1-2.022 1.12 7.7 7.7 0 0 1-2.414.377H64.4q-5.151 0-5.151-4.396V1.7q.324-.108.917-.256a26 26 0 0 1 1.28-.283q.69-.135 1.403-.216t1.28-.081h2.24q1.32 0 2.426.337a5.8 5.8 0 0 1 1.915.97q.808.635 1.254 1.538t.445 2.036q0 1.537-.782 2.521-.782.985-2.158 1.389.702.19 1.295.62.592.432 1.038.984.445.553.687 1.2.243.648.243 1.24m-4.018-7.632q0-.593-.256-1.01a1.94 1.94 0 0 0-.66-.661 3 3 0 0 0-.918-.351 5 5 0 0 0-1.024-.108H64.48q-.35 0-.782.067-.43.068-.809.122v4.18h2.832q1.24 0 2.117-.526.876-.526.876-1.713m.297 7.74q0-1.511-.769-2.077t-2.386-.566h-2.94v3.802q0 .486.459.823.458.336 1.16.337h1.51q1.509 0 2.238-.634.728-.633.728-1.685m.591 9.337h-.37V20.93h.855q.41 0 .616.15t.207.487q0 .3-.169.438a.77.77 0 0 1-.42.166l.633.973h-.42l-.583-.946h-.349zm.414-1.256q.104 0 .2-.008a.4.4 0 0 0 .165-.046.3.3 0 0 0 .115-.104.35.35 0 0 0 .044-.19.25.25 0 0 0-.047-.16.3.3 0 0 0-.117-.091.5.5 0 0 0-.158-.04 2 2 0 0 0-.169-.008h-.447v.647zM72 22q0 .45-.16.818a1.92 1.92 0 0 1-1.074 1.038 2 2 0 0 1-.76.144q-.443 0-.81-.152a1.9 1.9 0 0 1-.632-.42 1.9 1.9 0 0 1-.414-.634Q68 22.428 68 22q0-.45.16-.818a1.92 1.92 0 0 1 1.077-1.038q.365-.144.768-.144a2.04 2.04 0 0 1 1.398.55q.276.263.436.632.16.37.161.818m-.436 0q0-.363-.12-.668a1.6 1.6 0 0 0-.332-.525 1.5 1.5 0 0 0-.496-.34 1.55 1.55 0 0 0-.61-.12q-.332 0-.62.12-.285.121-.498.34-.212.22-.332.525a1.8 1.8 0 0 0-.12.668q0 .342.109.642.11.3.313.524.205.225.493.355.29.132.654.131.328 0 .61-.12a1.5 1.5 0 0 0 .497-.34q.212-.22.332-.52.12-.303.12-.672"/></svg>