<svg xmlns="http://www.w3.org/2000/svg" width="80" height="15" version="1.0"><defs><clipPath id="a" clipPathUnits="userSpaceOnUse"><path d="M171.998 239.12h20.614v12.484h-20.614z" style="fill:#000;fill-opacity:1;stroke:none;stroke-width:.92243534;stroke-miterlimit:4;stroke-dasharray:none;stroke-opacity:1"/></clipPath></defs><path d="M170.5 237.862h80v15h-80z" style="fill:#fff;fill-opacity:1;stroke:#000;stroke-width:1.04161763;stroke-miterlimit:4;stroke-dasharray:none;stroke-opacity:1" transform="matrix(.9875 0 0 .93335 -167.875 -221.476)"/><path d="M172 239.362h77v12h-77z" style="fill:#000;fill-opacity:1;stroke:none;stroke-width:.92243534;stroke-miterlimit:4;stroke-dasharray:none;stroke-opacity:1" transform="matrix(.9875 0 0 .93335 -167.875 -221.476)"/><path d="M172 239.375v12h20.335c1.308-1.75 2.192-3.784 2.192-6 0-2.2-.868-4.257-2.161-6z" style="fill:#abb1aa;fill-opacity:1;stroke:none;stroke-width:1;stroke-miterlimit:4;stroke-dasharray:none;stroke-opacity:.46913578" transform="matrix(.9875 0 0 .93335 -167.875 -221.476)"/><g clip-path="url(#a)" transform="matrix(.94924 0 0 .89719 -161.127 -212.602)"><path d="M190.064 245.362a7.047 7.047 0 0 1-14.094.009v-.009a7.047 7.047 0 1 1 14.094-.008z" style="opacity:1;fill:#fff"/><path d="M188.746 239.622q2.344 2.345 2.344 5.74t-2.304 5.68q-2.445 2.405-5.779 2.405-3.294 0-5.678-2.385t-2.385-5.7 2.385-5.74q2.324-2.344 5.678-2.344 3.395 0 5.739 2.344m-10.365 1.052q-1.982 2-1.982 4.69t1.962 4.65q1.96 1.962 4.67 1.961t4.71-1.98q1.901-1.841 1.901-4.63 0-2.77-1.931-4.701-1.93-1.931-4.68-1.931t-4.65 1.94m3.477 3.902q-.303-.66-.907-.66-1.07 0-1.07 1.438 0 1.44 1.07 1.439.705 0 1.008-.702l.987.526q-.706 1.255-2.118 1.255-1.09 0-1.745-.668-.656-.668-.656-1.842 0-1.154.676-1.831.675-.68 1.684-.679 1.494 0 2.14 1.176zm4.646 0q-.303-.66-.889-.66-1.09 0-1.09 1.438 0 1.44 1.09 1.439.706 0 .99-.702l1.01.526q-.705 1.255-2.116 1.255-1.088 0-1.742-.668t-.654-1.842q0-1.154.664-1.831.665-.68 1.692-.679 1.491 0 2.135 1.176z" style="opacity:1"/></g><path d="M357.42 389.685q.368 0 .558-.16.19-.162.19-.475 0-.31-.19-.47-.19-.165-.558-.165h-.862v1.27zm.052 2.624q.47 0 .704-.197.24-.197.24-.594-.001-.39-.236-.583-.234-.197-.708-.197h-.914v1.571zm1.449-2.158q.501.145.777.535.275.39.275.956 0 .868-.59 1.294-.592.426-1.797.426H355v-6h2.339q1.259 0 1.82.378.567.378.567 1.21 0 .437-.206.747a1.2 1.2 0 0 1-.6.454m.917-2.789h1.704l1.376 2.138 1.375-2.138H366l-2.302 3.472v2.528h-1.558v-2.528zm5.321 3.046h2.541v1.17h-2.54zm7.963-2.857v1.27a5.6 5.6 0 0 0-.972-.334 4 4 0 0 0-.894-.112q-.558 0-.825.153a.51.51 0 0 0-.267.474q0 .24.178.378.182.132.655.229l.664.132q1.007.201 1.432.611t.425 1.166q0 .992-.595 1.478-.59.483-1.808.483-.575 0-1.154-.109a7 7 0 0 1-1.157-.321v-1.306q.579.305 1.117.462.542.152 1.044.152.51 0 .78-.168a.54.54 0 0 0 .272-.483.53.53 0 0 0-.186-.434q-.183-.152-.733-.273l-.603-.132q-.906-.194-1.327-.615-.416-.422-.416-1.138 0-.896.582-1.378.583-.483 1.675-.482.498 0 1.024.076.526.072 1.089.221m5.434 4.718h-2.436l-.385 1.093h-1.565l2.237-6h1.857l2.238 6h-1.566zm-2.048-1.113h1.655l-.825-2.387z" style="font-size:8.25858784px;font-style:normal;font-weight:700;fill:#fff;fill-opacity:1;stroke:none;stroke-width:1px;stroke-linecap:butt;stroke-linejoin:miter;stroke-opacity:1;font-family:&quot;Bitstream Vera Sans&quot;" transform="matrix(.9875 0 0 .93335 -323.9 -356.812)"/></svg>