<svg xmlns="http://www.w3.org/2000/svg" width="137.311" height="46.437"><g fill="#2a7886" data-name="Grupo 4779"><path d="M64.292 23.218v23.218h38.578V0H64.292Zm11.772-6.453c.024 8.184.063 13.217.111 13.518a8.63 8.63 0 0 0 2.08 4.826 5.3 5.3 0 0 0 2.842 1.619 6.7 6.7 0 0 0 2.286.222 7 7 0 0 0 2.223-.19 6.34 6.34 0 0 0 4.263-3.223 10 10 0 0 0 .667-1.794c.016-.1.1-.46.175-.786.119-.548.135-1.715.159-13.915l.024-13.312h9.121v13.216c0 13.915 0 13.8-.357 15.836a13.51 13.51 0 0 1-8.613 10.835 19 19 0 0 1-5.977 1.191 18 18 0 0 1-3.453 0 17 17 0 0 1-6.8-1.667 12.3 12.3 0 0 1-5.3-4.588 13.5 13.5 0 0 1-1.857-4.183 25 25 0 0 1-.46-2.223c-.04-.238-.079-.548-.1-.675s-.056-6.43-.071-13.995l-.024-13.748h9.049Z" data-name="Trazado 1975"/><path d="M19.8 2.913c-.175.008-.833.064-1.469.1a22 22 0 0 0-6.668 1.572A18.22 18.22 0 0 0 1.455 15.277a21.4 21.4 0 0 0-1.183 4.525 35.5 35.5 0 0 0 .008 8.851c.071.46.135.889.151.953a24.3 24.3 0 0 0 1.318 4.652 16.75 16.75 0 0 0 6.6 7.9 19.8 19.8 0 0 0 3.993 1.794c.921.254 1.286.357 1.627.429a28 28 0 0 0 6.906.6 28.5 28.5 0 0 0 10.28-1.818 15 15 0 0 0 2.453-1.159 12.2 12.2 0 0 0-.818-2.556c-1.087-3.175-1.6-4.644-1.6-4.667 0-.071-.278.032-.984.349a19.2 19.2 0 0 1-4.533 1.421c-.175.024-.476.079-.675.119a28 28 0 0 1-3.9.318 11.8 11.8 0 0 1-6.954-1.857 10.5 10.5 0 0 1-2.524-2.469 13.2 13.2 0 0 1-1.659-3.85c-.111-.468-.135-.619-.246-1.183a29 29 0 0 1-.191-6.2 13.4 13.4 0 0 1 1.421-4.882 9.5 9.5 0 0 1 1.905-2.659 9.8 9.8 0 0 1 5.215-2.715 10.7 10.7 0 0 1 2.723-.175 18 18 0 0 1 2.9.143 22.2 22.2 0 0 1 6.009 1.818l.762.357.333-.929c.183-.508.437-1.207.556-1.556.318-.889.953-2.675 1.373-3.866l.365-1.008-.929-.468a16.6 16.6 0 0 0-3.231-1.326 22 22 0 0 0-3.056-.754c-.46-.087-1.008-.19-1.23-.238-.452-.087-3.636-.325-4.167-.3-.196.011-.498.022-.673.042" data-name="Trazado 1976"/><path d="M48.103 2.977a16.7 16.7 0 0 0-8.255 2.588A12 12 0 0 0 36.8 8.677a11 11 0 0 0-1.246 2.62 11.2 11.2 0 0 0-.468 3.739 9.3 9.3 0 0 0 1.233 5.317c1.31 2.278 3.3 3.913 6.5 5.326a66 66 0 0 0 3.1 1.222c6.692 2.278 8.612 3.763 8.43 6.517-.127 1.905-1.08 2.929-3.223 3.493a11.3 11.3 0 0 1-3.62.278 19.5 19.5 0 0 1-4.564-.326 24.2 24.2 0 0 1-5.485-1.857c-.54-.278-.6-.286-.651-.1-.024.079-.151.46-.294.857s-.357 1.016-.492 1.389-.262.746-.3.833-.159.429-.27.754-.413 1.175-.667 1.889l-.476 1.294.175.111a23 23 0 0 0 3.223 1.413 25 25 0 0 0 3.651.961 28 28 0 0 0 5.914.579c4.9.1 8.644-.667 11.391-2.31a10.03 10.03 0 0 0 3.882-4.1 10.2 10.2 0 0 0 .937-2.619 20 20 0 0 0-.008-6.073 11 11 0 0 0-.413-1.508 9.3 9.3 0 0 0-2.286-3.659 16.5 16.5 0 0 0-5.564-3.477c-.476-.206-.976-.421-1.111-.484a76 76 0 0 0-2.818-1.1c-.9-.3-2.961-1.1-3.58-1.381a6.25 6.25 0 0 1-3.08-2.564 2.55 2.55 0 0 1-.206-1.429c0-.953.008-1.008.254-1.469a3.77 3.77 0 0 1 1.461-1.453 13.6 13.6 0 0 1 6.477-.611 11.3 11.3 0 0 1 3.08.675 15.5 15.5 0 0 1 2.691 1.056c.548.262.8.349.841.286.064-.1.619-1.588 1.246-3.326.2-.548.389-1.064.429-1.151.087-.214.833-2.262.9-2.469.04-.143-.032-.2-.564-.453a24.6 24.6 0 0 0-8.755-2.35 24.7 24.7 0 0 0-4.371-.04" data-name="Trazado 1977"/><path d="M123.627 2.905c-.175.016-.889.071-1.588.119s-1.413.111-1.588.151-.619.127-.992.2a24 24 0 0 0-3.771 1.064l-.833.373a17.85 17.85 0 0 0-7.5 6.207 21.2 21.2 0 0 0-3.088 7.128c-.024.079-.087.421-.159.746a23 23 0 0 0-.373 2.9 48 48 0 0 0 .079 5.771c.167 1.2.254 1.778.325 2.167a21.7 21.7 0 0 0 .929 3.572 14 14 0 0 0 .992 2.262 15.88 15.88 0 0 0 9.629 8.263 17.4 17.4 0 0 0 3.294.818 40.3 40.3 0 0 0 9.922.048 29 29 0 0 0 3-.6 32 32 0 0 0 3.326-1.072c.476-.19 1.984-.9 2.072-.984a12.7 12.7 0 0 0-.778-2.421c-.357-1.024-.73-2.119-.833-2.421-.318-.945-.826-2.358-.865-2.4a7 7 0 0 0-1.1.413 20 20 0 0 1-6.6 1.667c-4.271.444-7.525-.278-9.93-2.183a10.2 10.2 0 0 1-3.4-5.279c-.119-.4-.508-2.278-.516-2.5 0-.063-.04-.492-.087-.953a26 26 0 0 1 .159-5.6 15.3 15.3 0 0 1 .754-2.7 12.4 12.4 0 0 1 .905-1.826 9.82 9.82 0 0 1 6.906-4.7 24.4 24.4 0 0 1 5.437.008 22 22 0 0 1 5.953 1.786c.4.19.746.341.786.349s.1-.071.127-.183.23-.667.437-1.23.453-1.262.548-1.548.381-1.072.627-1.746.556-1.532.682-1.905.246-.683.246-.691c0-.048-2.294-1.167-2.754-1.334a26.8 26.8 0 0 0-5.422-1.413 36 36 0 0 0-4.958-.323" data-name="Trazado 1978"/></g></svg>