<svg xmlns="http://www.w3.org/2000/svg" xmlns:xlink="http://www.w3.org/1999/xlink" width="900" height="600"><defs><linearGradient xlink:href="#a" id="b" x1="408.551" x2="410.238" y1="132.569" y2="218.989" gradientTransform="translate(-169.7 252.777)" gradientUnits="userSpaceOnUse"/><linearGradient id="a"><stop offset="0" style="stop-color:#8c1619;stop-opacity:1"/><stop offset="1" style="stop-color:#d01f2e;stop-opacity:1"/></linearGradient><clipPath id="c" fill="none"><path d="M0 0h595.276v841.89H0z" shape-rendering="crispEdges" style="stroke:#000"/></clipPath></defs><path d="M283.44 428.512c0 23.889-19.208 43.254-42.902 43.254s-42.903-19.366-42.903-43.254c0-23.89 19.208-43.255 42.903-43.255 23.694 0 42.903 19.366 42.903 43.255" style="fill:url(#b);fill-opacity:1;stroke:none" transform="matrix(6.0128 0 0 5.96391 -1010.304 -2255.606)"/><path d="M-10.128 8.356q-.834-2.31-2.321-3.819t-3.609-2.566Q-18.178.914-20.796.038q-2.089-.754-2.996-1.147a8.2 8.2 0 0 1-1.794-1.087 5.1 5.1 0 0 1-1.393-1.66q-.506-.966-.506-2.295 0-2.143 1.487-3.668 1.487-1.524 3.914-1.525 2.616 0 3.798 1.404t2.026 3.911q.654 1.75 1.214 2.52t1.636.77q1.182 0 1.974-1.282t.792-2.882q0-1.75-.633-3.591-.633-1.84-2.004-3.516t-3.448-2.685q-2.078-1.01-4.924-1.011-3.564 0-6.201 1.525t-4.028 4.361q-1.392 2.837-1.392 6.49 0 3.834 1.317 6.414t3.562 4.075q2.245 1.494 5.575 2.611 2.49.816 3.977 1.54a6.16 6.16 0 0 1 2.426 2.098q.939 1.374.939 3.578 0 2.778-1.74 4.635-1.741 1.857-4.525 1.857-2.025 0-3.27-.921a6.24 6.24 0 0 1-1.93-2.34q-.686-1.42-1.276-3.533-.485-1.78-1.169-2.687-.685-.906-1.675-.906-1.221 0-2.011 1.163t-.79 2.796q0 2.811 1.317 5.787t3.423 4.76q2.975 2.484 7.553 2.484 3.819 0 6.604-1.814 2.784-1.814 4.23-5.02 1.445-3.205 1.445-7.228-.004-3.352-.836-5.663" style="fill:#fff;fill-opacity:1" transform="translate(479.338 223.268)scale(5.61206)"/><path d="M-7.34-13.087q-.83-1.143-1.99-1.144-1.356 0-1.968 1.129t-1.028 2.923q-.984 3.804-2.92 5.768-1.935 1.965-4.735 1.964-2.58 0-4.505-1.732t-2.974-5.242q-1.05-3.51-1.05-8.8 0-7.917 2.373-12.217 2.373-4.299 6.375-4.299 2.515 0 4.232 1.67t2.985 5.041q.765 2.042 1.389 2.876t1.87.835q1.116 0 1.903-1.202t.787-2.774q0-2.865-1.618-6.087-1.619-3.22-4.658-5.409t-6.933-2.189q-3.193 0-6.014 1.606t-4.917 4.678-3.22 7.394-1.124 9.787q0 3.366.447 6.361a32.4 32.4 0 0 0 1.343 5.635q.895 2.64 2.161 4.77 1.419 2.33 3.113 3.757a11.1 11.1 0 0 0 3.771 2.1q2.078.674 4.614.674 3.346 0 5.861-1.509A12.9 12.9 0 0 0-9.637-.65q1.619-2.418 2.373-4.928t.755-4.667q0-1.697-.831-2.842" style="fill:#fff;fill-opacity:1" transform="matrix(5.61206 0 0 5.49504 619.238 354.56)"/><g clip-path="url(#c)" style="fill:none" transform="translate(-1235.912 -1911.666)scale(5.61206)"><path d="M24.422 71.844q0 .716-.264 1.286a2.06 2.06 0 0 1-.772.894q-.508.323-1.206.323-.836 0-1.379-.44a2.3 2.3 0 0 1-.625-.848 2.5 2.5 0 0 1-.24-1.032.85.85 0 0 1 .144-.498.43.43 0 0 1 .367-.207q.18 0 .306.162.125.162.213.48.108.378.233.631t.353.418q.227.165.597.164.509 0 .826-.332.318-.332.318-.828 0-.393-.172-.639a1.1 1.1 0 0 0-.443-.375 6 6 0 0 0-.726-.275 4.4 4.4 0 0 1-1.018-.466 1.9 1.9 0 0 1-.65-.728q-.24-.46-.24-1.146 0-.653.254-1.16t.735-.779 1.132-.272q.52 0 .899.181.38.18.63.48.25.299.366.628.115.328.115.642a.95.95 0 0 1-.144.515q-.144.23-.36.229a.35.35 0 0 1-.298-.137 2 2 0 0 1-.221-.45q-.154-.448-.37-.699t-.693-.251q-.444 0-.715.273a.9.9 0 0 0-.272.655q0 .237.093.41a.9.9 0 0 0 .254.297q.162.125.328.194.165.07.547.205.478.156.865.345.387.19.659.458.271.27.424.682.15.411.15 1.01m3.459-5.668q.878 0 1.507.498.63.498.953 1.418.324.919.323 2.159 0 .916-.177 1.665-.177.75-.531 1.299a2.5 2.5 0 0 1-.87.841 2.36 2.36 0 0 1-1.182.291q-.663 0-1.186-.299a2.5 2.5 0 0 1-.874-.844 4.1 4.1 0 0 1-.529-1.31 7.2 7.2 0 0 1-.179-1.655q0-.91.187-1.671a4.1 4.1 0 0 1 .541-1.294q.355-.534.862-.817a2.35 2.35 0 0 1 1.155-.281m1.624 4.064q0-.869-.2-1.505t-.572-.963a1.25 1.25 0 0 0-.853-.326q-.342 0-.633.181a1.55 1.55 0 0 0-.5.526q-.21.345-.331.882t-.121 1.206q0 .674.121 1.219.121.544.343.904.222.359.508.537t.629.178q.438 0 .806-.307t.585-.949q.218-.646.218-1.583m5.509-2.695h-2.253v2.021h1.883q.262 0 .391.165t.129.44a.68.68 0 0 1-.131.437q-.13.162-.389.162h-1.883v2.602q0 .496-.16.735-.16.24-.41.24-.254 0-.414-.242-.16-.243-.16-.733V67.29q0-.345.073-.563a.57.57 0 0 1 .229-.318.7.7 0 0 1 .398-.1h2.696q.274 0 .406.17a.7.7 0 0 1 .133.445.7.7 0 0 1-.133.451q-.132.17-.405.17m5.061.088h-1.248v5.738q0 .496-.158.736t-.41.24q-.255 0-.415-.242t-.16-.733v-5.738h-1.248q-.292 0-.435-.181a.75.75 0 0 1-.143-.479q0-.309.148-.487t.429-.178h3.639q.296 0 .441.184a.76.76 0 0 1 .145.481.74.74 0 0 1-.146.479q-.146.18-.439.18m5.921 4.084q0 .377-.133.816t-.418.862-.728.687a2 2 0 0 1-1.032.264 2.6 2.6 0 0 1-.813-.118 2 2 0 0 1-.664-.369 2.7 2.7 0 0 1-.549-.659 4.3 4.3 0 0 1-.381-.833 5.7 5.7 0 0 1-.237-.984 7.4 7.4 0 0 1-.079-1.111q0-.954.198-1.709t.568-1.291a2.6 2.6 0 0 1 .867-.817q.497-.28 1.059-.28.685 0 1.221.383.535.382.82.946.285.563.285 1.064a.86.86 0 0 1-.139.485q-.139.21-.335.21-.22 0-.329-.146a2.2 2.2 0 0 1-.245-.502q-.223-.588-.526-.879a1.03 1.03 0 0 0-.745-.291q-.705 0-1.123.75-.417.75-.418 2.131 0 .922.185 1.535t.524.914q.339.302.793.302.493 0 .834-.343.342-.343.514-1.006a2 2 0 0 1 .181-.51.37.37 0 0 1 .346-.197q.204 0 .351.2a.8.8 0 0 1 .148.496m4.654 1.601-.27-.992h-2.295l-.27 1.013q-.157.593-.27.8-.112.207-.366.207-.216 0-.381-.221a.8.8 0 0 1-.166-.501q0-.162.039-.334t.127-.48l1.444-5.131.148-.531q.086-.31.185-.515a.94.94 0 0 1 .258-.332.6.6 0 0 1 .395-.127q.239 0 .398.127a.9.9 0 0 1 .258.326q.099.2.166.428.067.23.171.612l1.475 5.099q.173.582.173.846a.84.84 0 0 1-.164.504q-.164.23-.395.229a.4.4 0 0 1-.231-.067.6.6 0 0 1-.162-.183 2 2 0 0 1-.141-.356zm-2.264-2.196h1.687l-.851-3.257zm7.395-3.489h-1.248v5.738q0 .496-.158.736-.159.24-.41.24-.255 0-.415-.242t-.16-.733v-5.738h-1.248q-.293 0-.435-.181a.75.75 0 0 1-.143-.479q0-.309.148-.487t.429-.178h3.639q.296 0 .441.184a.76.76 0 0 1 .145.481.74.74 0 0 1-.146.479q-.147.18-.439.18m4.454 5.685-.27-.992H57.67l-.27 1.013q-.157.593-.27.8-.112.207-.366.207-.216 0-.381-.221a.8.8 0 0 1-.166-.501q0-.162.039-.334t.127-.48l1.444-5.131.148-.531q.087-.31.185-.515a.9.9 0 0 1 .258-.332.62.62 0 0 1 .395-.127q.239 0 .398.127a.94.94 0 0 1 .258.326q.098.2.166.428.067.23.171.612l1.475 5.099q.173.582.173.846a.85.85 0 0 1-.164.504q-.164.23-.395.229a.4.4 0 0 1-.231-.067.6.6 0 0 1-.162-.183 2 2 0 0 1-.141-.356zm-2.265-2.196h1.687l-.851-3.257zm5.445-3.976V72.9h2.319q.278 0 .426.188a.74.74 0 0 1 .148.474.73.73 0 0 1-.146.471q-.147.18-.427.18h-2.761q-.373 0-.537-.232t-.164-.749v-6.087q0-.486.156-.728.156-.243.41-.243.258 0 .418.24.158.242.158.732m7.259 6.172-.27-.992h-2.295l-.27 1.013q-.157.593-.27.8-.111.207-.366.207-.216 0-.381-.221a.8.8 0 0 1-.166-.501q0-.162.039-.334t.127-.48l1.444-5.131.148-.531q.087-.31.185-.515a.9.9 0 0 1 .258-.332.62.62 0 0 1 .395-.127q.239 0 .398.127a.9.9 0 0 1 .258.326q.098.2.166.428.068.23.171.612l1.475 5.099q.173.582.173.846a.85.85 0 0 1-.164.504q-.164.23-.395.229a.4.4 0 0 1-.231-.067.6.6 0 0 1-.162-.183 2 2 0 0 1-.141-.356q-.073-.238-.126-.421m-2.265-2.196h1.687l-.851-3.257zm.985-6.259.173.452q.105.231.104.318 0 .135-.166.134a.8.8 0 0 1-.474-.156q-.108-.075-.531-.641t-.424-.635q0-.081.196-.081h.52q.227 0 .343.113t.259.496M40.046 79.95l2.929-2.929h1.503l-3.68 3.68zm3.654 3.654 6.582-6.582h1.503l-7.334 7.334zm-1.218-1.218 5.364-5.365h1.503l-6.116 6.116zm-1.218-1.218 4.146-4.147h1.503l-4.898 4.898z" style="fill:#fff" transform="translate(251.837 347.115)"/></g></svg>