<svg xmlns="http://www.w3.org/2000/svg" xml:space="preserve" width="881" height="347.89"><g fill-rule="evenodd" clip-rule="evenodd"><path fill="#030303" d="M674.549 201.908c-3.787-.055-6.68-3.061-6.629-6.893.051-3.749 3.129-6.712 6.902-6.642 3.639.068 6.6 3.154 6.572 6.848a6.705 6.705 0 0 1-6.845 6.687"/><path fill="#710249" d="M90.386 205.515c.564-.408 1.048.026 1.518.196 4.707 1.696 9.295 3.68 13.797 5.859 14.635 7.086 28.267 15.749 40.578 26.381 15.683 13.543 29.243 28.97 40.366 46.488 4.017 6.325 7.377 13.003 10.483 19.814.766 1.678 1.552 3.349 2.531 5.017.549-.416.759-1.006 1.019-1.542 1.512-3.121 2.998-6.254 4.505-9.377 5.176-10.724 11.647-20.625 19.02-29.954 5.482-6.938 11.372-13.516 17.571-19.818 13.74-13.968 29.426-25.288 46.77-34.352 6.073-3.174 12.291-6.025 18.725-8.394q.634-.231 1.278-.434c.075-.023.17.018.351.042-.345.608-.826 1.054-1.279 1.513-4.149 4.202-8.308 8.396-12.458 12.596a66351 66351 0 0 0-22.05 22.32c-4.877 4.94-9.747 9.887-14.623 14.828-8.677 8.792-17.356 17.579-26.032 26.37q-7.41 7.507-14.813 15.02a36480 36480 0 0 0-17.456 17.73c-.149.152-.371.263-.367.527h-.271c-1.082-1.137-2.146-2.291-3.249-3.408-6.896-6.997-13.804-13.984-20.701-20.98-7.341-7.445-14.675-14.897-22.011-22.346l-17.454-17.724-17.551-17.82c-5.85-5.941-11.702-11.878-17.548-17.823-3.286-3.341-6.559-6.696-9.843-10.04-.249-.254-.538-.47-.809-.704z"/><path fill="#020202" d="M848.432 153.176c-.756 1.418-1.445 2.869-2.426 4.163-3.357 4.433-8.543 6.249-13.785 4.791-3.805-1.059-6-3.778-6.223-7.726a37 37 0 0 1-.049-2.027l-.002-25.298v-.676c0-1.361.123-1.284-1.348-1.283-.811.001-1.623-.016-2.434.005-.512.014-.676-.18-.73-.704-.119-1.168.232-2.002 1.168-2.787 4.871-4.08 8.965-8.864 12.516-14.121.535-.793 1.727-1.197 2.555-.885.195.073.273.209.277.4q.012.473.012.947-.002 6.088.002 12.175c.002 1.103.016 1.113 1.1 1.117 2.074.008 4.148-.006 6.223.006.934.005.961.023.949.984-.01.894.367 2.005-.148 2.624-.549.659-1.693.196-2.574.227-1.439.05-2.885.009-4.328.015-1.213.005-1.221.01-1.221 1.28-.004 3.608-.002 7.215-.002 10.823 0 4.645.006 9.289-.004 13.934-.002.818.07 1.626.281 2.409.342 1.274.932 2.36 2.377 2.661 1.449.301 2.672-.134 3.664-1.203.738-.796 1.338-1.702 1.859-2.651.24-.437.455-.588.945-.312.42.236.82.564 1.346.573z"/><path fill="#010101" d="M168.616 161.852c0-19.029-.002-38.057.003-57.086 0-1.926-.21-1.618 1.662-1.624 4.915-.015 9.83-.005 14.745-.004.315 0 .632.008.946.001.395-.01.571.177.564.568-.009.406 0 .812 0 1.217 0 37.246.007 74.491-.01 111.737-.001 4.149 1.354 7.719 4.415 10.512 7.798 7.115 19.018 2.803 21.578-6.489.36-1.309.479-2.651.478-4.012-.006-37.246-.005-74.491-.005-111.737 0-1.797 0-1.797 1.767-1.798q7.507-.002 15.016.002c1.121 0 1.121.012 1.139 1.075.003.18 0 .36 0 .541 0 37.381.017 74.762-.012 112.143-.007 9.044-3.23 16.835-9.719 23.152-5.94 5.784-13.154 8.81-21.444 8.854-7.278.039-13.82-2.368-19.432-7.023-7.05-5.848-10.883-13.41-11.591-22.543-.09-1.167-.097-2.341-.097-3.512-.005-17.991-.003-35.983-.003-53.974"/><path fill="#030303" d="M461.627 212.497c.316-.413.2-.782.2-1.118.01-4.96.007-9.92.006-14.88 0-.723-.045-1.438-.232-2.143-.267-1.003-.877-1.647-1.878-1.932-1.178-.334-2.383-.473-3.6-.554-.288-.02-.714.075-.746-.375-.041-.569-.23-1.201.141-1.692.212-.281.681-.118 1.033-.119 5.095-.006 10.19-.004 15.285-.004.496 0 .994.024 1.488-.006.561-.035.854.146.799.756-.028.313-.005.631-.005.947 0 15.962-.001 31.924.005 47.886 0 .766.019 1.536.115 2.293.196 1.535 1.014 2.572 2.57 2.934.569.132 1.141.28 1.719.347.475.055.558.286.578.708.064 1.321.049 1.392-1.097 1.483-5.221.415-10.385 1.144-15.406 2.697-.073.022-.167-.023-.409-.062v-5.469c-.733.664-1.215 1.097-1.694 1.532-1.719 1.563-3.602 2.879-5.862 3.509-5.215 1.455-9.796.241-13.737-3.432-2.971-2.769-4.753-6.202-5.474-10.175-1.021-5.644-.82-11.237 1.191-16.647 1.766-4.746 4.784-8.532 9.582-10.451 4.829-1.932 9.453-1.527 13.477 2.134.467.425.918.867 1.377 1.299.183.173.369.344.574.534m.208 15.73c0-3.156-.069-6.314.031-9.468.047-1.477-.43-2.63-1.388-3.661-.338-.363-.669-.735-1.035-1.067-2.912-2.641-7.416-1.997-9.446 1.351-.998 1.646-1.495 3.47-1.772 5.35-.729 4.931-.666 9.882-.201 14.828.194 2.066.604 4.101 1.573 5.977 1.904 3.686 5.864 4.477 9.049 1.792.971-.819 1.754-1.808 2.503-2.827.5-.679.71-1.408.701-2.266-.036-3.337-.015-6.674-.015-10.009"/><path fill="#020202" d="M716.395 249.734v-5.526c-.49.451-.809.732-1.113 1.027-2.078 1.999-4.389 3.621-7.256 4.239-4.629.999-8.75-.094-12.334-3.18-3.736-3.218-5.656-7.401-6.293-12.205-.615-4.649-.359-9.26 1-13.771 1.232-4.088 3.488-7.508 6.936-10.058 3.449-2.552 7.312-3.361 11.516-2.433 2.088.461 3.783 1.631 5.33 3.05.58.532 1.156 1.068 1.744 1.609.312-.35.203-.674.203-.968.008-4.913.006-9.826.006-14.739 0-.767-.07-1.523-.244-2.277-.258-1.123-.898-1.826-2.021-2.111a18 18 0 0 0-3.33-.507c-.932-.057-.932-.075-.945-1.021-.018-1.169-.018-1.179 1.148-1.179q8.179-.005 16.361-.001c1.344 0 1.209-.098 1.209 1.254.002 15.865 0 31.731.004 47.596 0 1.035.035 2.066.195 3.095.242 1.56 1.086 2.53 2.623 2.888.482.112.965.256 1.455.291.602.042.855.232.838.897-.029 1.195.021 1.22-1.139 1.317-5.17.432-10.295 1.113-15.271 2.66-.163.05-.347.031-.622.053m-.26-21.608c0-3.242-.027-6.484.016-9.725.014-1.006-.26-1.856-.877-2.618-.395-.49-.777-.996-1.223-1.438-3.102-3.089-7.955-2.401-10.033 1.43-.756 1.395-1.199 2.909-1.447 4.472-.854 5.371-.756 10.758-.186 16.143.201 1.883.664 3.722 1.598 5.401 1.029 1.853 2.502 3.038 4.719 3.094 1.662.042 3.076-.558 4.301-1.642.916-.808 1.686-1.745 2.396-2.734.516-.716.762-1.48.75-2.389-.04-3.331-.016-6.663-.014-9.994"/><path fill="#030303" d="M463.337 104.716c-1.766.158-3.422.277-5.027.795-1.461.471-2.373 1.407-2.776 2.868-.363 1.311-.516 2.653-.517 4.008-.008 10.1-.024 20.2.01 30.3.009 2.705.262 5.4 1.056 8.011 1.54 5.066 5.087 7.853 10.389 8.149 2.543.143 5.056-.09 7.465-.939 4.739-1.671 7.277-5.234 8.373-9.977.581-2.513.783-5.074.788-7.645.02-8.928.01-17.855.006-26.783 0-1.492-.136-2.97-.558-4.409-.489-1.671-1.559-2.79-3.191-3.418-1.486-.572-3.06-.704-4.593-.975-.259-2.153-.259-2.153 1.716-2.153h17.121c.077.165.142.243.148.326.147 1.792.142 1.774-1.559 2.229a31 31 0 0 0-2.569.823c-1.394.51-2.153 1.543-2.427 2.993-.271 1.428-.291 2.868-.292 4.309-.006 9.288.024 18.577-.016 27.865-.018 3.86-.656 7.627-2.239 11.184-2.111 4.744-5.555 8.089-10.574 9.56-7.126 2.088-14.271 1.935-21.241-.62-6.164-2.26-9.767-6.856-11.064-13.267a29 29 0 0 1-.561-5.774c.01-9.604.005-19.208.005-28.812 0-1.443-.062-2.878-.276-4.312-.281-1.892-1.234-3.111-3.146-3.595a30 30 0 0 0-3.041-.622c-.503-.073-.735-.241-.682-.754.051-.485-.109-.99.167-1.533h27.823c.181 0 .364.024.54-.004.762-.124.942.272.871.93-.043.4.073.814-.129 1.242"/><path fill="#710249" d="M313.561 150.748c9.305 2.816 16.47 8.442 21.844 16.625 7.104-7.347 15.585-11.917 25.788-13.769-.787 5.146-2.406 9.818-4.695 14.274-2.277 4.435-5.268 8.359-8.838 11.971 5.773 3.852 10.218 8.738 13.44 14.722 1.545 2.87 2.714 5.904 2.938 7.67-12.267-8.974-25.868-12.204-40.942-10 2.161-15.113-.839-28.931-9.535-41.493M199.344 86.296c-8.967-12.241-20.72-19.925-35.729-22.475 8.538-4.715 17.566-5.88 27.164-3.981-.132-10.365 2.758-19.706 8.646-28.293 5.956 8.544 8.701 17.929 8.677 28.279 9.581-1.871 18.574-.715 27.106 3.984-14.992 2.603-26.837 10.181-35.864 22.486M35.547 152.877c10.104 1.784 18.536 6.438 25.67 13.736 5.404-8.143 12.546-13.811 21.911-16.782.041.47-.193.682-.354.909-5.126 7.23-8.242 15.262-9.505 24.013-.75 5.201-.712 10.415.002 15.621.012.089.04.176.053.265.148 1.011.137 1.032-.834.886a53 53 0 0 0-4.97-.509c-12.415-.675-23.701 2.554-33.854 9.74-.318.225-.577.581-1.033.576-.168-.38.033-.702.144-1.037 2.782-8.4 7.79-15.161 14.969-20.319 1.231-.884 1.229-.854.151-1.987-6.449-6.774-10.481-14.791-12.273-23.952a5 5 0 0 1-.074-.536c-.012-.133-.003-.268-.003-.624"/><path fill="#040404" d="M597.195 228.854c-.441 2.516-.838 4.817-1.25 7.116q-1.038 5.785-2.092 11.566c-.195 1.065-.203 1.076-1.248 1.077-3.336.006-6.672.002-10.008.002h-38.006c-1.373-.003-1.766-.54-1.41-1.885.09-.343.32-.381.602-.392.992-.039 1.977-.14 2.947-.35 2.363-.511 3.775-2.045 4.055-4.449.062-.535.07-1.079.07-1.619q.008-20.76 0-41.521c0-.63-.008-1.268-.105-1.887-.346-2.18-1.578-3.564-3.752-4.104-1.012-.252-2.043-.342-3.072-.438-.568-.053-.818-.247-.754-.822a3.5 3.5 0 0 0 .002-.676c-.051-.542.102-.871.727-.797.223.026.451.003.676.003h27.727c.045 0 .09-.006.135.001.387.058.916-.203 1.137.184.291.51.15 1.144.088 1.715-.045.427-.486.324-.773.352-1.252.125-2.518.168-3.748.468-.523.127-1.039.291-1.551.461-1.109.37-1.801 1.162-2.158 2.251-.428 1.295-.602 2.633-.602 3.993q-.004 21.032.004 42.062c0 .493.041.992.127 1.478.273 1.546 1.197 2.461 2.74 2.785 2.5.524 5.023.447 7.539.255 2.896-.221 5.678-.947 8.301-2.224 3.139-1.529 5.439-3.951 7.289-6.852 1.334-2.095 2.406-4.324 3.363-6.612.537-1.283.219-1.125 1.748-1.143.354-.001.711.002 1.252.002m-83.408-101.83c.65-.722 1.273-1.467 1.953-2.16 2.652-2.703 5.783-4.423 9.648-4.556 2.646-.091 5.215.271 7.555 1.615 1.783 1.025 3.037 2.514 3.75 4.456.852 2.321 1.064 4.739 1.07 7.18.016 6.944.004 13.889.01 20.833 0 .629.027 1.263.102 1.887.166 1.399.914 2.316 2.312 2.656.35.085.691.207 1.047.256.625.087.912.336.885 1.047-.047 1.233.008 1.244-1.266 1.245q-8.997.003-17.992.001-.406.002-.812-.01c-.25-.008-.447-.118-.459-.384-.021-.45-.006-.901-.008-1.352 0-.359.285-.421.537-.505.555-.184 1.121-.333 1.666-.541.91-.346 1.455-.992 1.648-1.974.143-.715.199-1.427.199-2.148.002-7.26-.002-14.52.004-21.78 0-1.042-.092-2.073-.32-3.087-.596-2.646-2.711-3.978-5.367-3.444-2.027.407-3.404 1.745-4.752 3.161-.873.918-1.289 1.909-1.275 3.253.074 7.214.035 14.43.037 21.645 0 .766.037 1.524.17 2.287.188 1.097.816 1.776 1.811 2.16.42.161.852.299 1.291.388.576.116.809.381.803 1.008-.01 1.317.031 1.323-1.32 1.324q-9.2.002-18.398.001c-.271 0-.541.002-.812-.005-.331-.009-.478-.203-.486-.517-.007-.225.021-.454-.01-.676-.089-.649.139-1.014.825-1.102.442-.058.879-.196 1.304-.338 1.319-.439 2.104-1.368 2.321-2.729.112-.708.146-1.436.147-2.154q.014-12.717.002-25.433a13 13 0 0 0-.12-1.887c-.196-1.364-.899-2.336-2.28-2.72-.433-.12-.864-.278-1.306-.325-.746-.079-.931-.47-.903-1.169.044-1.151.004-1.162 1.206-1.162q7.102-.006 14.205 0c1.098.001 1.107.011 1.113 1.085.01 1.531.002 3.061.002 4.591z"/><path fill="#030303" d="M817.711 156.091c1.482 1.593 1.5 1.613-.006 3.014-3.012 2.806-6.512 4.119-10.65 3.333-2.285-.435-3.771-1.804-4.508-3.998-.17-.508-.307-1.026-.457-1.537-.455-.035-.615.35-.875.574-3.471 3.012-7.428 4.898-12.064 5.18-2.512.153-4.801-.538-6.902-1.921-1.879-1.238-2.98-2.97-3.365-5.164-.822-4.708.777-8.405 4.707-11.095 2.131-1.457 4.479-2.498 6.852-3.479 3.457-1.429 7.012-2.575 10.592-3.648 1.025-.308 1.055-.318 1.033-1.366-.047-2.386.168-4.778-.129-7.158-.428-3.425-2.006-5.073-5.391-5.567-1.43-.209-2.875-.211-4.293.167-.703.188-1.365.469-1.947.909-1.186.897-1.352 2.1-.467 3.298.135.181.295.341.438.516 1.691 2.067 1.992 4.435.812 6.388-1.096 1.816-3.645 2.792-6.068 2.325-3.234-.624-5.025-3.022-4.734-6.344.246-2.822 1.551-5.043 3.84-6.687 2.977-2.137 6.352-3.147 9.965-3.418 4.449-.333 8.791.069 12.988 1.753 4.057 1.629 6.168 4.654 6.703 8.886q.213 1.673.209 3.369c-.016 6.581-.01 13.163-.006 19.745 0 .45-.012.908.064 1.347.27 1.544 1.512 2.051 2.793 1.167.286-.198.471-.549.866-.589m-15.957-15.949c-3.18.813-6.066 2.17-8.262 4.724-1.957 2.274-2.527 4.931-1.91 7.84.641 3.01 2.898 4.317 5.871 3.477 1.543-.436 2.666-1.445 3.756-2.542.514-.516.727-1.055.719-1.792-.035-3.561-.014-7.123-.018-10.685 0-.31.063-.631-.156-1.022m-40.748 103.902c-.455.049-.59.312-.783.489-2.973 2.713-6.428 4.451-10.4 5.106-3.092.51-5.996.043-8.656-1.734-1.832-1.225-2.949-2.911-3.344-5.032-.822-4.432.492-8.091 4.135-10.836 1.703-1.284 3.611-2.204 5.541-3.075 3.906-1.763 7.969-3.092 12.064-4.332.301-.091.6-.205.906-.264.377-.072.547-.274.533-.648-.09-2.744.23-5.5-.211-8.232-.49-3.019-1.984-4.475-5.016-5.004-1.484-.259-2.955-.266-4.426.064-.803.18-1.543.505-2.189 1.011-1.092.854-1.26 2.102-.412 3.205.52.679 1.102 1.303 1.455 2.102 1.547 3.502-.65 7.068-4.473 7.226-.674.028-1.357.055-2.02-.111-3.158-.797-4.707-2.875-4.49-6.264.186-2.886 1.584-5.114 3.91-6.786 2.703-1.944 5.779-2.95 9.041-3.285 4.34-.445 8.641-.196 12.801 1.286a16.5 16.5 0 0 1 3.168 1.498c2.785 1.719 4.031 4.383 4.52 7.49.197 1.248.258 2.507.256 3.771q-.003 9.94 0 19.877c.002.493-.045.99.131 1.471.443 1.211 1.51 1.589 2.592.894.332-.213.627-.484.932-.724 1.543 1.594 1.551 1.601.062 3.042-2.633 2.545-5.758 3.779-9.439 3.549-2.994-.187-4.971-1.71-5.85-4.565-.119-.384-.221-.775-.338-1.189m-.293-16.754c-2.871.744-5.416 1.908-7.527 3.917-2.492 2.372-3.338 5.276-2.703 8.618.447 2.35 2.301 4.474 5.719 3.569 1.588-.42 2.785-1.399 3.898-2.553.539-.56.768-1.135.76-1.916-.037-3.245-.01-6.491-.021-9.736-.003-.579.091-1.167-.126-1.899m-254.144-.052c-3.382 0-6.764-.005-10.146.003-.963.002-.993.022-.918.972.286 3.57.941 7.049 2.591 10.279 2.966 5.809 9.218 5.97 13.152 3.503 1.542-.966 2.835-2.214 4.075-3.528.25-.264.453-.804.945-.579.566.258 1.133.559 1.564 1.032.148.163 0 .34-.092.482-2.764 4.294-6.089 7.946-11.139 9.575-10.48 3.379-20.881-3.545-22.74-12.941-1.05-5.303-1.252-10.592.394-15.773 2.149-6.773 6.741-11.082 13.771-12.505 8.246-1.668 15.993 3.097 18.347 11.17.697 2.387 1.07 4.835 1.211 7.318.055.963.061.983-.871.986-3.02.01-6.042.004-9.063.004q-.538.002-1.081.002m-5.527-3.249c1.62 0 3.241.009 4.862-.003 1-.007 1.048-.023 1.005-1.066a108 108 0 0 0-.341-5.518c-.119-1.296-.316-2.592-.726-3.838-.423-1.282-1.106-2.371-2.382-2.96-2.521-1.164-5.31-.165-6.516 2.333-.393.812-.646 1.678-.834 2.56a37.3 37.3 0 0 0-.833 7.496c-.01.969-.014.984.901.992 1.622.013 3.243.004 4.864.004m147.72-72.192c-1.668 2.779-3.609 5.122-5.996 7.097-5.363 4.438-14.223 5.353-20.914.632-3.588-2.532-6.025-5.786-7.053-10.045-1.357-5.627-1.42-11.257.352-16.812 2.195-6.89 8.303-11.691 15.293-12.321 7.387-.666 14.75 3.734 16.871 11.975.572 2.231.885 4.507 1.066 6.8.076.955.055.978-.906.981-3.518.01-7.035.003-10.551.004-3.248 0-6.494-.005-9.742.003-.947.003-.979.023-.906.979.248 3.254.84 6.437 2.189 9.43 1.195 2.659 2.996 4.726 5.938 5.493 2.709.707 5.268.254 7.652-1.202 1.557-.951 2.812-2.249 4.074-3.537.689-.704.689-.71 1.539-.194.342.207.67.438 1.094.717m-17.041-14.94h4.6c1.408-.001 1.35.141 1.342-1.281a46.4 46.4 0 0 0-.596-7.264c-.16-.978-.395-1.942-.828-2.843-.561-1.161-1.447-2.007-2.703-2.263-2.557-.521-4.74.035-5.957 2.888a11.5 11.5 0 0 0-.512 1.534c-.729 2.714-.959 5.494-1.039 8.29-.025.917-.006.93.961.937 1.577.01 3.156.002 4.732.002m6.607 90.381c.117 3.382.697 6.509 1.838 9.523.285.755.639 1.495 1.047 2.19 2.498 4.262 7.314 5.721 11.807 3.625 1.924-.897 3.412-2.325 4.867-3.812 1.1-1.126 1.09-1.094 2.398-.217.51.34.492.603.188 1.072-1.186 1.819-2.5 3.526-4.047 5.055-3.852 3.809-8.516 5.436-13.883 5.121-3.836-.226-7.092-1.851-10.051-4.208-2.902-2.312-4.713-5.318-5.592-8.866-1.287-5.202-1.451-10.47-.021-15.649 1.994-7.229 6.668-11.894 14.107-13.32 8.271-1.585 15.908 3.089 18.24 11.141.68 2.345 1.049 4.749 1.215 7.181.08 1.155.059 1.164-1.16 1.165q-9.671.003-19.342.001c-.49-.002-.978-.002-1.611-.002m5.531-3.249c1.621 0 3.242.007 4.863-.003 1.076-.006 1.107-.019 1.062-1.011-.076-1.706-.143-3.416-.309-5.115-.158-1.608-.348-3.221-.951-4.748-.691-1.757-1.932-2.758-3.85-2.9-2.021-.15-3.615.519-4.654 2.321-.5.867-.789 1.814-1.014 2.779-.594 2.551-.809 5.15-.902 7.761-.031.875-.008.903.893.911 1.62.016 3.241.004 4.862.005"/><path fill="#020202" d="m617.639 216.319.002 23.662c0 .99.064 1.977.154 2.965.133 1.466.881 2.417 2.225 2.937a15 15 0 0 0 1.275.439c.447.129.625.37.643.864.049 1.417.074 1.426-1.35 1.426q-9.058.002-18.117.001c-.227 0-.451-.011-.676 0-.436.021-.691-.129-.666-.611a4.5 4.5 0 0 0-.004-.81c-.061-.504.18-.744.639-.85a7.4 7.4 0 0 0 1.764-.67c.893-.469 1.443-1.187 1.637-2.189.191-.979.25-1.964.25-2.957v-42.997c0-.857-.074-1.705-.182-2.556-.16-1.255-.846-2.056-1.986-2.502a12 12 0 0 0-1.535-.507c-.422-.103-.562-.302-.592-.737-.1-1.546-.119-1.546 1.479-1.546q6.897-.002 13.793 0c1.35.001 1.248-.129 1.248 1.217zm135.728-76.032c0-4.642.002-9.284-.002-13.926-.002-1.229-.012-1.231-1.271-1.239-.857-.006-1.713.001-2.57-.004-.215-.001-.457.042-.617-.161-.279-.355-.02-2.297.377-2.656.867-.787 1.77-1.535 2.627-2.33 4.018-3.722 7.5-7.902 10.572-12.429.58-.855 1.586-1.203 2.525-.914.277.085.324.27.326.504q.005.473.004.946c0 4.056.004 8.112-.004 12.168-.002 1.108.025 1.023 1.045 1.021 2.117-.004 4.236.021 6.354-.014.68-.011 1 .16.945.899a14 14 0 0 0 0 2.162c.051.697-.271.825-.877.816-1.938-.027-3.877-.01-5.814-.01-.316 0-.633.017-.947-.002-.504-.032-.764.15-.705.692.025.223.004.45.004.676v24.202c0 1.038.027 2.073.33 3.078.799 2.651 3.566 3.428 5.654 1.58.82-.725 1.393-1.648 1.961-2.569.619-1.003.619-1.003 1.713-.443q.301.154.604.305c.25.126.283.315.172.556-2.084 4.528-4.99 8.152-10.213 9.172-2.393.468-4.764.295-7.039-.598-3.061-1.201-4.713-3.515-5.062-6.748-.119-1.116-.084-2.25-.086-3.375-.012-3.787-.006-7.573-.006-11.359"/><path fill="#030303" d="M652.277 121.267h13.035c.812 0 1.623-.009 2.436.002.961.014.977.022.984.954.014 1.578.004 3.156.004 4.733v1.091c1.309-1.517 2.344-2.798 3.533-3.934.785-.748 1.584-1.478 2.48-2.084 2.186-1.477 4.611-2.108 7.191-1.578 4.092.841 6.289 3.917 5.316 8.348-.447 2.034-1.75 3.449-3.836 3.954-2.217.536-4.094-.164-5.637-1.787-.713-.75-1.324-1.596-2.043-2.341-1.029-1.07-1.707-1.159-2.982-.376-2.062 1.266-3.115 3.199-3.438 5.545a22 22 0 0 0-.199 2.96c-.02 5.049-.016 10.098-.004 15.147.002 1.395.098 2.782.355 4.162.27 1.46 1.127 2.299 2.514 2.685.783.218 1.576.37 2.383.478 1.084.146 1.082.167 1.068 1.244-.012.983-.012 1.009-.945 1.01-7.168.007-14.336-.005-21.504.018-.672.002-.855-.224-.836-.854.049-1.536-.078-1.231 1.131-1.485 2.373-.498 3.148-1.329 3.352-3.711.107-1.254.18-2.516.182-3.775.016-7.619.006-15.238.01-22.856 0-.723-.086-1.435-.174-2.152-.191-1.533-1.035-2.444-2.504-2.825-.131-.034-.258-.083-.389-.116-1.699-.433-1.699-.432-1.483-2.457m66.627-.699v5.095c0 2.165-.027 4.33.016 6.494.014.681-.223.894-.852.816a2.6 2.6 0 0 0-.676 0c-.562.077-.814-.213-.947-.709-.271-1.005-.705-1.947-1.182-2.868a12.8 12.8 0 0 0-3.189-3.987c-2.205-1.826-4.74-2.532-7.574-2.02-1.953.353-3.223 1.527-3.861 3.378-.623 1.799-.133 3.36 1.098 4.744 1.068 1.203 2.414 2.022 3.828 2.731 1.812.906 3.645 1.775 5.469 2.655 1.342.646 2.631 1.379 3.908 2.143 6.699 4.002 7.385 11.606 4.111 17.191-2.363 4.034-5.904 6.037-10.494 6.4-3.219.254-6.268-.459-9.275-1.479-.768-.26-1.525-.55-2.299-.796-1.197-.382-1.824-.164-2.561.858-.131.183-.238.383-.367.567-.201.287-.242.766-.619.829-.525.087-1.076.039-1.613.027-.215-.004-.297-.173-.303-.371q-.014-.337-.014-.676-.002-6.088.002-12.176c.002-1.133.012-1.133 1.203-1.136.18-.001.363.021.541-.004.508-.072.717.183.832.644.207.829.42 1.661.699 2.467 1.586 4.59 4.82 7.269 9.568 8.146 1.395.258 2.793.151 4.158-.191 4.289-1.073 4.797-6.297 2.48-8.806a7.8 7.8 0 0 0-2.26-1.693 750 750 0 0 0-7.023-3.476c-2.193-1.071-4.285-2.285-6.156-3.879-5.357-4.567-5.012-12.621-.736-17.198 2.205-2.36 4.924-3.535 8.088-3.896 2.6-.297 5.117.04 7.613.725.998.274 1.994.56 3.004.793 1.334.31 2.635.436 3.322-1.151.131-.302.371-.37.656-.349.442.035.899-.106 1.405.158m-108.779.698c0 .49-.041.807.01 1.109.125.778-.174 1.111-.961 1.247-1.275.221-2.154 1.065-2.832 2.129-.707 1.108-1.188 2.325-1.68 3.533-4.361 10.715-8.715 21.433-13.074 32.15-.498 1.226-1.061 1.497-2.369 1.244-.463-.09-.525-.439-.656-.76-.783-1.917-1.559-3.837-2.342-5.754-3.25-7.96-6.486-15.925-9.764-23.874a66 66 0 0 0-3.018-6.337c-.701-1.289-1.568-2.308-3.145-2.459-.252-.024-.59-.033-.582-.413.01-.571-.209-1.201.15-1.692.213-.291.682-.117 1.033-.118 5.229-.008 10.459-.005 15.688-.005h4.738c.215.724.135 1.389.078 2.09-.73.103-1.441.192-2.148.304-2.283.364-2.83 1.277-2.041 3.48.469 1.313.994 2.607 1.504 3.906q2.515 6.41 5.037 12.82c.066.168.121.34.195.503.145.312.18.747.686.689.398-.045.438-.402.551-.687 1.188-3.015 2.389-6.026 3.561-9.048.941-2.433 2.053-4.803 2.727-7.337.174-.661.287-1.322.252-2.001-.064-1.257-.467-1.783-1.668-2.155a8.6 8.6 0 0 0-2.393-.379c-.521-.009-.752-.165-.703-.696a4.6 4.6 0 0 0 0-.811c-.049-.542.205-.693.715-.687 1.623.022 3.246.008 4.869.008z"/><path fill="#050505" d="M680.854 226.152v15.28c0 .27-.004.541 0 .812.055 2.637.559 3.294 3.062 4.052.318.096.812.023.861.491.055.531 0 1.076-.039 1.612-.006.075-.191.179-.305.196-.221.035-.449.021-.676.021-6.219 0-12.439.004-18.66-.008-.33 0-.824.205-.957-.235-.166-.553-.129-1.159.006-1.733.02-.083.219-.131.34-.179q.188-.075.389-.116c2.188-.428 3.504-1.077 3.609-4.713.094-3.198.021-6.4.021-9.601v-16.092c-.002-.766-.041-1.522-.178-2.284-.232-1.297-.996-2.085-2.186-2.509a10.4 10.4 0 0 0-1.432-.391c-.479-.097-.639-.333-.656-.831-.051-1.465-.078-1.466 1.432-1.467 4.732 0 9.465-.003 14.199.002 1.156.001 1.166.012 1.166 1.196q.006 8.247.004 16.497"/><path fill="#020202" d="M562.23 138.804v15.552c0 .405-.016.813.023 1.216.209 2.235.744 2.876 2.887 3.52.371.111.924.024 1.025.486.111.513.037 1.071.016 1.608-.01.209-.201.279-.393.285q-.472.013-.945.013h-17.986c-.316 0-.633 0-.947-.01-.26-.008-.434-.155-.445-.407-.023-.449-.012-.901-.002-1.352.004-.198.131-.329.316-.387.213-.068.432-.121.65-.177 2.346-.599 3.055-1.369 3.396-3.762.088-.622.109-1.257.111-1.886.006-8.205.004-16.409.006-24.613 0-.722-.074-1.434-.166-2.151-.186-1.47-.99-2.37-2.371-2.802-.43-.134-.859-.273-1.297-.366-.467-.098-.652-.318-.674-.822-.062-1.476-.088-1.479 1.432-1.48q7.165-.004 14.334.002c1.008.001 1.025.015 1.025 1.035.007 5.498.005 10.998.005 16.498"/><path fill="#030303" d="M741.301 138.704v14.733c.002.991.068 1.975.189 2.961.156 1.266.848 2.045 2.023 2.439.383.128.771.245 1.164.336.441.102.676.282.697.807.064 1.483.078 1.503-1.402 1.503h-17.979c-.314 0-.631 0-.945-.01-.258-.008-.438-.149-.449-.402-.023-.449-.02-.901-.004-1.351.012-.346.309-.404.564-.479.387-.114.779-.214 1.17-.317 1.48-.39 2.234-1.416 2.516-2.863.182-.932.227-1.875.229-2.82.002-8.02.006-16.04-.008-24.06 0-.807-.094-1.615-.172-2.42-.141-1.466-.965-2.378-2.344-2.824-.256-.083-.51-.174-.77-.246-1.158-.32-1.473-.857-1.189-2.013.061-.257.191-.394.445-.404.271-.011.541-.007.811-.007q7.098-.001 14.193.001c1.277 0 1.262-.161 1.262 1.216q-.003 8.11-.001 16.22m.603-30.704c-.004 3.816-2.953 6.75-6.766 6.731s-6.691-2.96-6.666-6.815c.023-3.721 2.98-6.684 6.684-6.694 3.756-.011 6.752 3 6.748 6.778m-179.133.051c-.02 3.811-2.973 6.71-6.805 6.68-3.791-.03-6.678-3.02-6.629-6.863.049-3.71 3.037-6.625 6.742-6.656 3.657-.031 6.946 3.32 6.692 6.839"/></g><path fill="#710249" fill-rule="evenodd" d="m89.718 174.001.063-.128-.06.144z" clip-rule="evenodd"/></svg>