<svg xmlns="http://www.w3.org/2000/svg" width="491.339" height="113.386"><defs><clipPath id="a" clipPathUnits="userSpaceOnUse"><path d="M0 85.04h368.504V0H0Z"/></clipPath></defs><g clip-path="url(#a)" transform="matrix(1.33333 0 0 -1.33333 0 113.386)"><path d="M0 0v-10.938q0-3.963-1.084-5.659-1.428-2.219-5.578-2.219-5.351 0-6.463 3.598-.53 1.68-.529 4.28V0q0 2.141-1.098 2.488-.542.174-1.441.175v.682h7.69v-.682q-1.442 0-1.97-.522-.57-.555-.57-2.141v-10.938q0-4.724 2.24-6.071.899-.554 2.254-.554 2.938-.001 4.009 1.822.87 1.49.87 4.803V0q.001 1.585-.556 2.125-.542.538-1.983.538v.682h6.748v-.682q-1.812 0-2.254-.903Q0 1.19 0 0" style="fill:#04507c;fill-opacity:1;fill-rule:evenodd;stroke:none" transform="translate(98.994 32.169)"/><path d="M0 0v.555q1.198 0 1.698.539.514.554.513 1.885v8.973q0 1.172-.599 1.649-.47.364-1.612.46v.554l4.494.809v-4.36h.057q1.512 4.36 4.622 4.36 2.154 0 2.869-1.363.513-.984.513-3.615V2.979q0-1.87 1.055-2.25.47-.175 1.171-.174V0h-6.72v.555q1.212 0 1.712.539.514.538.514 1.885v6.753q-.001 2.252-.143 2.775-.357 1.315-1.827 1.316-.97 0-1.982-1.363a9.3 9.3 0 0 1-1.242-2.314q-.6-1.587-.599-3.139V2.979q0-1.87 1.056-2.25.47-.175 1.17-.174V0Z" style="fill:#04507c;fill-opacity:1;fill-rule:evenodd;stroke:none" transform="translate(100.921 13.67)"/><path d="M0 0q-.7 0-1.185.539t-.485 1.315q0 .793.471 1.333.485.554 1.199.554.712 0 1.184-.554.484-.54.484-1.333 0-.776-.484-1.315Q.698 0 0 0m-3.268-18.436v.555q1.2 0 1.698.539.514.554.514 1.886v8.973q0 1.189-.599 1.648-.457.365-1.613.46v.555l4.495.808v-12.444q0-1.87 1.055-2.25.47-.175 1.17-.175v-.555z" style="fill:#04507c;fill-opacity:1;fill-rule:evenodd;stroke:none" transform="translate(120.381 32.105)"/><path d="m0 0-4.48 11.842q-.771 2.028-1.613 2.599-.556.365-1.398.381v.586h6.178v-.586q-1.298 0-1.298-.777 0-.588.385-1.616l3.338-8.957 2.939 8.861q.328.982.329 1.396-.001.998-1.313 1.093v.586h5.279v-.586q-1.328-.095-1.898-.793-.385-.46-.955-2.091L1.369 0Z" style="fill:#04507c;fill-opacity:1;fill-rule:evenodd;stroke:none" transform="translate(130.547 13.352)"/><path d="M0 0h5.907q0 2.346-1.113 3.408-.629.587-1.67.587-1.926 0-2.768-2.33Q0 .698 0 0m8.133-9.02v-1.045q-1.428-.572-3.482-.572-4.622 0-6.249 3.726-.827 1.87-.827 4.55 0 7.465 5.935 7.465 2.996 0 4.323-2.409.669-1.236.67-3.044v-.713H0Q0-4.47 1.498-6.816q1.67-2.632 4.58-2.631 1.298 0 2.055.427" style="fill:#04507c;fill-opacity:1;fill-rule:evenodd;stroke:none" transform="translate(140.272 23.99)"/><path d="M0 0v.555q1.213 0 1.712.539.513.538.514 1.885v8.973q0 1.19-.6 1.664-.47.35-1.626.445v.554l4.508.809v-3.503h.057q1.199 3.503 3.795 3.503a1.4 1.4 0 0 0 1.027-.428q.443-.428.443-1.094 0-1.538-1.412-1.538-.442 0-.999.381-.542.396-.657.397-.613 0-1.355-1.19-.899-1.427-.899-4.026V2.979q0-1.87 1.056-2.25.47-.175 1.17-.174V0Z" style="fill:#04507c;fill-opacity:1;fill-rule:evenodd;stroke:none" transform="translate(150.109 13.67)"/><path d="M0 0h-.728q-.641 2.917-2.981 2.917-1.384 0-2.068-.856-.358-.461-.358-1.189 0-1.205 1.313-2.141.942-.57 2.839-1.727 1.455-.92 1.998-1.681.713-.998.713-2.631 0-2.299-1.741-3.456-1.427-.95-3.638-.951-2.197 0-3.766.571l-.2 3.646h.728q.785-3.155 3.452-3.154a2.95 2.95 0 0 1 1.941.713q.94.776.941 1.95 0 1.125-1.198 2.139-.599.523-2.069 1.348-1.47.84-2.068 1.348-1.528 1.267-1.527 3.091 0 2.14 1.527 3.202 1.268.887 3.324.887 1.825 0 3.367-.554z" style="fill:#04507c;fill-opacity:1;fill-rule:evenodd;stroke:none" transform="translate(169.49 25.067)"/><path d="M0 0q-.7 0-1.185.539-.484.539-.484 1.315 0 .793.47 1.333.485.554 1.199.554.712 0 1.184-.554.484-.54.484-1.333 0-.776-.484-1.315Q.698 0 0 0m-3.268-18.436v.555q1.2 0 1.698.539.514.554.514 1.886v8.973q0 1.189-.6 1.648-.457.365-1.612.46v.555l4.495.808v-12.444q0-1.87 1.055-2.25.47-.175 1.171-.175v-.555z" style="fill:#04507c;fill-opacity:1;fill-rule:evenodd;stroke:none" transform="translate(174.813 32.105)"/><path d="M0 0v2.426h-.057Q-.342 1.458-1.412.729-2.468.001-3.424 0q-2.853 0-4.237 2.441-1.142 2.03-1.142 5.406 0 3.391 1.142 5.422 1.384 2.472 4.237 2.472 2.284 0 3.367-2.536H0v6.436q0 1.142-.627 1.632-.471.38-1.599.508v.555l4.509.776V3.472q0-1.19.599-1.664.442-.366 1.612-.492V.777Zm-6.192 7.847q0-3.964 1.199-5.659.699-.999 1.954-.999 1.713 0 2.497 2.537Q0 5.469 0 7.847q0 2.362-.542 4.122-.784 2.535-2.497 2.536-1.769 0-2.582-2.505-.57-1.728-.571-4.153" style="fill:#04507c;fill-opacity:1;fill-rule:evenodd;stroke:none" transform="translate(187.782 13.352)"/><path d="M0 0v1.918q-5.107-.128-5.107-3.377 0-1.063.499-1.902.569-.952 1.484-.952 1.439 0 2.339 1.396Q-.001-1.681 0 0m4.322-4.709v-.682a8 8 0 0 0-2.126-.285Q0-5.676 0-3.282h-.058q-1.44-2.393-4.151-2.394-2.07 0-3.039 1.776-.456.839-.456 1.918 0 3.026 2.81 4.106 1.2.459 2.697.634L0 3.012v1.236q-.001 3.107-.799 4.058-.557.65-1.683.65-1.057 0-1.499-.349-.542-.427-.541-1.537 0-1.713-1.371-1.713-1.412 0-1.412 1.491 0 1.95 2.668 2.838 1.141.379 2.183.379 3.58 0 4.365-2.424.37-1.142.371-2.807v-8.116q0-1.553 1.256-1.553.27 0 .784.126" style="fill:#04507c;fill-opacity:1;fill-rule:evenodd;stroke:none" transform="translate(201.365 19.028)"/><path d="M0 0v2.426h-.058Q-.342 1.458-1.412.729-2.468.001-3.424 0q-2.853 0-4.237 2.441-1.142 2.03-1.142 5.406 0 3.391 1.142 5.422 1.384 2.472 4.237 2.472 2.284 0 3.366-2.536H0v6.436q0 1.142-.628 1.632-.47.38-1.598.508v.555l4.509.776V3.472q0-1.19.599-1.664.442-.366 1.612-.492V.777Zm-6.191 7.847q0-3.964 1.198-5.659.699-.999 1.954-.999 1.713 0 2.496 2.537Q0 5.469 0 7.847q0 2.362-.543 4.122-.783 2.535-2.496 2.536-1.769 0-2.582-2.505-.57-1.728-.57-4.153" style="fill:#04507c;fill-opacity:1;fill-rule:evenodd;stroke:none" transform="translate(215.276 13.352)"/><path d="M0 0v2.426h-.057Q-.343 1.458-1.413.729-2.469.001-3.424 0q-2.854 0-4.237 2.441-1.142 2.03-1.142 5.406 0 3.391 1.142 5.422 1.383 2.472 4.237 2.472 2.282 0 3.367-2.536H0v6.436q0 1.142-.627 1.632-.472.38-1.599.508v.555l4.509.776V3.472q0-1.19.599-1.664.442-.366 1.612-.492V.777Zm-6.192 7.847q0-3.964 1.199-5.659.699-.999 1.954-.999 1.712 0 2.497 2.537.541 1.743.542 4.121-.001 2.362-.542 4.122-.785 2.535-2.497 2.536-1.77 0-2.582-2.505-.571-1.728-.571-4.153" style="fill:#04507c;fill-opacity:1;fill-rule:evenodd;stroke:none" transform="translate(237.13 13.352)"/><path d="M0 0h5.906q0 2.346-1.112 3.408-.629.587-1.67.587-1.926 0-2.768-2.33Q0 .698 0 0m8.132-9.02v-1.045q-1.426-.572-3.482-.572-4.622 0-6.248 3.726-.828 1.87-.828 4.55 0 7.465 5.935 7.465 2.996 0 4.323-2.409.67-1.236.671-3.044v-.713H0Q0-4.47 1.498-6.816q1.67-2.632 4.579-2.631 1.298 0 2.055.427" style="fill:#04507c;fill-opacity:1;fill-rule:evenodd;stroke:none" transform="translate(244.635 23.99)"/><path d="m0 0-3.282-9.987h6.52zm-9.815-18.531v.649q1.952 0 2.638 1.411.356.73.857 2.22L-.271 3.646h1.64l6.077-18.151q.772-2.283 1.813-2.964.613-.413 1.541-.413v-.649H3.21v.649q2.068 0 2.068 1.111 0 .585-.257 1.362l-1.369 4.122h-7.334l-1.255-3.9q-.356-1.11-.356-1.522 0-.887.984-1.077a5 5 0 0 1 1.084-.096v-.649z" style="fill:#04507c;fill-opacity:1;fill-rule:evenodd;stroke:none" transform="translate(269.733 32.201)"/><path d="M0 0v.555q1.214 0 1.712.539.516.538.515 1.885v16.344q0 1.158-.615 1.649-.47.364-1.612.492v.555l4.494.776V2.979q0-1.87 1.057-2.25Q6.02.554 6.72.555V0Z" style="fill:#04507c;fill-opacity:1;fill-rule:evenodd;stroke:none" transform="translate(281.793 13.67)"/><path d="M0 0q-.7 0-1.184.539-.485.539-.485 1.315 0 .793.471 1.333A1.53 1.53 0 0 0 0 3.741a1.49 1.49 0 0 0 1.184-.554q.485-.54.485-1.333 0-.776-.485-1.315Q.698 0 0 0m-3.268-18.436v.555q1.199 0 1.699.539.513.554.513 1.886v8.973q0 1.189-.599 1.648-.456.365-1.613.46v.555l4.495.808v-12.444q0-1.87 1.056-2.25.47-.175 1.17-.175v-.555z" style="fill:#04507c;fill-opacity:1;fill-rule:evenodd;stroke:none" transform="translate(293.186 32.105)"/><path d="M0 0v-.951q-1.283-.507-3.138-.508-3.739 0-5.621 2.251-1.798 2.155-1.798 6.056 0 4.724 2.725 6.515 1.412.92 3.596.919 1.767 0 2.953-.57 1.626-.778 1.626-2.489 0-1.553-1.369-1.553-.742 0-1.128.665-.23.397-.456 1.442-.315 1.396-2.012 1.396-2.154 0-3.053-2.315-.457-1.189-.457-2.949 0-4.644 3.068-7.021Q-3.595-.271-1.64-.27-.998-.27 0 0" style="fill:#04507c;fill-opacity:1;fill-rule:evenodd;stroke:none" transform="translate(307.825 14.812)"/><path d="M0 0v1.918q-5.107-.128-5.107-3.377 0-1.063.499-1.902.57-.952 1.483-.952 1.44 0 2.341 1.396Q-.001-1.681 0 0m4.322-4.709v-.682a8 8 0 0 0-2.125-.285Q-.001-5.676 0-3.282h-.058q-1.44-2.393-4.151-2.394-2.07 0-3.038 1.776-.457.839-.457 1.918 0 3.026 2.81 4.106 1.199.459 2.697.634L0 3.012v1.236q0 3.107-.8 4.058-.555.65-1.683.65-1.056 0-1.497-.349-.544-.427-.543-1.537 0-1.713-1.37-1.713-1.412 0-1.412 1.491 0 1.95 2.668 2.838 1.142.379 2.183.379 3.581 0 4.366-2.424.37-1.142.37-2.807v-8.116q0-1.553 1.256-1.553.271 0 .784.126" style="fill:#04507c;fill-opacity:1;fill-rule:evenodd;stroke:none" transform="translate(316.986 19.028)"/><path d="M0 0v.555q1.2 0 1.697.539.514.554.514 1.885v8.973q0 1.172-.599 1.649-.47.364-1.612.46v.554l4.494.809v-4.36h.058q1.511 4.36 4.622 4.36 2.153 0 2.867-1.363.514-.984.514-3.615V2.979q0-1.87 1.056-2.25.47-.175 1.169-.174V0H8.062v.555q1.21 0 1.711.539.513.538.513 1.885v6.753q0 2.252-.142 2.775-.357 1.315-1.827 1.316-.97 0-1.982-1.363a9.2 9.2 0 0 1-1.241-2.314q-.6-1.587-.6-3.139V2.979q0-1.87 1.056-2.25.47-.175 1.17-.174V0Z" style="fill:#04507c;fill-opacity:1;fill-rule:evenodd;stroke:none" transform="translate(322.25 13.67)"/><path d="M0 0v-1.094q-.94-.126-1.412-.127-3.11 0-3.938 1.031-.698.856-.699 3.836v9.448h-2.368v1.094q2.54 0 3.424 2.092.457 1.11.457 2.822h.757v-4.914H0v-1.094h-3.779V2.727q-.002-1.618.57-2.251.583-.634 2.04-.634.128 0 1.169.158" style="fill:#04507c;fill-opacity:1;fill-rule:evenodd;stroke:none" transform="translate(345.221 14.573)"/><path d="M0 0h5.906q0 2.346-1.113 3.408-.629.587-1.669.587-1.926 0-2.768-2.33Q0 .698 0 0m8.132-9.02v-1.045q-1.427-.572-3.482-.572-4.622 0-6.249 3.726-.827 1.87-.827 4.55 0 7.465 5.936 7.465 2.994 0 4.322-2.409.67-1.236.671-3.044v-.713H0Q0-4.47 1.497-6.816q1.67-2.632 4.58-2.631 1.298 0 2.055.427" style="fill:#04507c;fill-opacity:1;fill-rule:evenodd;stroke:none" transform="translate(347.813 23.99)"/><path d="m0 0 57.158.009-.013-57.153H-.009Z" style="fill:#d9e1d8;fill-opacity:1;fill-rule:evenodd;stroke:none" transform="translate(11.998 70.685)"/><path d="m0 0 41.048-36.107c.011-2.85-.015-6.599 0-11.238h-57.152l.012 8.126z" style="fill:#fff;fill-opacity:1;fill-rule:evenodd;stroke:none" transform="translate(28.093 60.886)"/><path d="m0 0 .135-.352c.234-.06.488-.078.728-.082v-.189l.405.055.162-.489.216-.162c.039.006.101.331.216.217l.216-.623c.202.089 1.061-.762 1.025-.868l.215-.028.216-.351.432-.027c.025-.634 1.214-1.353 1.646-1.843l.135-.028v-.758c-1.253.137-7.521.174-8.742-.081l-.026.081-.405-.081-.027.081-.081-.217h-1.404c.112.228-.373.174-.242 0-.296.16-.74.07-1.052 0l-.028.217-.404-.163-.054.163-.188-.217h-.971l-.136.217c-.06 0-.342-.533-.297-.028-.543-.096-1.097-.073-1.646-.053v.921l.19-.082c.212.328.319.835.243 1.22h.188c.235.612.516 1.282.459 1.951l.189-.054c.179.15.337.413.243.651h.188l.027.352c.289.168.719.286 1.053.216l.054-.216.107.298c.373-.027.688-.404.918-.298-.019.352 1.241.313 1.484.298l.027-.082.296.217c.107.108.477-.196.189-.189l.486-.244.108.216c.533.366.976.062 1.601.205l.037-.341.79-.08.108.216.243-.216.323.244-.08.108.188.162.082-.081z" style="fill:#fccc2d;fill-opacity:1;fill-rule:evenodd;stroke:none" transform="translate(38.37 40.944)"/><path d="M0 0s-.063-.256.116-.25c.092.003.128-.152.252-.118.184.051.134-.098.134-.098s.179-.031.089-.145C.53-.69.751-.788.751-.788l.323.008.043-.184s.197-.159.281-.378.352-.409.352-.409.055-.054.14.055c.084.107.119.086.119.086s.121-.168.429-.372c.093-.061 0-.251.253-.325.131-.037.362-.208.362-.208l-.155-.17c.052-.077.302-.099.314-.194.069-.539.447-.31.447-.31s.106-.109-.028-.318c-.133-.21-.026-.3-.026-.3s-.141-.34-.097-.585.151-.456.151-.456-.462 0-.766.245c-.137.11-.311.125-.431.279-.185.235-.301.09-.301.09l-.232-.201c-.075.113-.171.251-.868.025s-.425-.087-.745-.116c0 0-.261-.059-.597.078-.275.111-.417.214-.417.214l-.379-.201-.449-.137v-.082l-.567.185-.406-.095-.174.168-.366.039-.397-.078-.125.165c-.466-.157-.266-.288-.69-.165 0 0-.195.113-.252 0l-.178.039-.167.151-.095-.224c-.047.185-.643.064-1.055-.088l-.428.08-.342.104s-.108.136-.254.024c-.184-.14-.484-.064-.484-.064l-.437-.127-.477.224c-.139-.085.251-.299-.395-.049l-.359.137c-.246-.398-.711-.207-.711-.207s-2.892.005-2.939-.005-.051.003-.052.005c-.016.028-.083 0-.083 0 .005.048.025.062-.002.098l-.166-.098c-.764-.191-.934-.091-2.56.161-.221-.207-.291-.307-.522-.158-.07.046-.328.155-.328.155.069-.164.035-.07-.074-.158-.034-.028-1.182.111-.764.058.069-.009-.141.182-.141.182l-.106-.158-.517-.071c-.196.035-.344-.036-.595-.114 0 0-.029.033-.046.075-.009.022-.059.064-.059.101s-.042.065-.042.065l-.286-.138s.035.117-.063.103c-.083-.011-.083.089-.083.089l-.107-.192s-.944-.065-1.301 0-.554-.066-.554-.066l-.151.235-.284-.257-.435.088-.253.152c-.169 0-.534-.329-.637-.18-.012.019-.443.222-.706.064-.417-.252-.646.062-.798-.151-.183-.071-1.135.231-1.242.231-.064 0-.18-.167-.275-.117l-.439.144c-.146-.137-.401-.039-.403-.035-.055.084-.197.047-.197.047l-.546.007s.195.255.227.551c.018.165.073.522.073.522.095.145.058.246.087.352l.15.16c.016.118.016.42.016.42l.14.741.552.297s-.024.049-.02.075c.006.028-.017.089-.033.14a.3.3 0 0 0-.011.114c.006.04 0 .095 0 .095l.074.075c.353.513.743 1.095.927 1.7l.476.121c.695-.161.658-.206.761 0l.56-.176c-.076.037.37.179.394.192.06.034.149-.035.253-.11l.983-.027.074.131c.354-.008.629.12 1.019-.049.126-.056.308-.192.572-.123.118.03.437.114.674-.029.106-.063.371-.146.465-.12s.532.078.714.041c.151.02.674-.073.972.166.198.033.224.122.26.099l.343-.091s.981-.034 1.416.096c.293.089.556.012 1.27-.009l.397-.14c.023-.003.43-.124.549.105a1.5 1.5 0 0 0 .562-.084c.112.007.166.154.278.159.341.015.66-.125.856-.152l.275.152.399-.152.751.192.289-.165c.355-.111.783-.082 1.065.155-.044-.27.349.162.349-.054 0-.218.356-.155.38-.052l1.184.143.075-.113.177.113h.815l.555.052.286.103.282-.072.679.043c.086-.085 1.915.172 1.998.106.138-.109-.339-.434.156-.331.282.058.141-.211.388-.101.07.032.103-.051.196-.169l.223-.149.249-.205S-.634.4-.332.281C-.229.24.004.211-.098.127-.208.038 0 0 0 0" style="fill:#f36717;fill-opacity:1;fill-rule:evenodd;stroke:none" transform="translate(51.743 29.675)"/><path d="m0 0 .467.317C.521.472.432.446.46.571c.129.248.465.654.563 1.006.166.611.193 1.156.737 1.481v.961c0 .287.23.517.515.517h1.768c.11 0 .147-.147.258-.147.782 0 1.206.37 1.989.37.11 0 .156-.139.257-.149 1.454-.129 2.302.047 3.757-.074.092 0 .119-.147.22-.147.451 0 .654.37 1.105.37.194 0 .286-.149.479-.149.276 0 .423.149.699.149.305 0 .47-.149.774-.149.23 0 .359.075.589.075.092 0 .092.148.184.148.147 0 .147-.223.294-.223.268 0 .425.167.59.371.23-.175.368-.371.663-.371.396 0 .782.019.958.371a.8.8 0 0 0 .22-.222h.737c.156 0 .174.222.331.222.102 0 .12-.148.222-.148.11 0 .156.11.257.148v-.222h2.578c.156 0 .212-.149.369-.149.128 0 .165.149.294.149.101 0 .12-.149.22-.149.129 0 .166.149.296.149h1.767c.221 0 .331-.149.552-.149.194 0 .285.149.479.149.139 0 .194-.149.331-.149.13 0 .166.149.296.149.211 0 .303-.223.515-.223.313 0 .424.297.736.297.295 0 .442-.223.737-.223.156 0 .212.149.369.149.1 0 .119-.149.22-.149.194 0 .285.149.479.149.349 0 .534-.149.883-.149.25 0 .369.121.59.223 1.353-.027 2.118.092 3.461-.074.12-.009.166-.149.295-.149.138 0 .194.149.332.149.129 0 .165-.149.294-.149.11 0 .12.149.184.223.166-.083.249-.223.442-.223.092 0 .092.149.185.149.22 0 .331-.149.552-.149.248 0 .376.149.626.149.11 0 .147-.149.257-.149.101 0 .12.149.221.149.129 0 .166-.149.295-.149h.589c.166 0 .24.149.405.149.092 0 .092-.149.185-.149.212 0 .303.149.515.149.102 0 .119-.149.221-.149.129 0 .166.149.295.149h4.64c.423-.565.847-1.184 1.546-1.036.028-.361.434-.407.663-.665.268-.297.405-.649.81-.666.019-.509.267-.703.626-1.064.424-.426.298-.561.927-1.138 0 0 .698-.683.643-.67l.616-.428-50.186-.01z" style="fill:#d9e1d8;fill-opacity:1;fill-rule:nonzero;stroke:none" transform="translate(18.945 14.428)"/><path d="M0 0c-.071-.068-.16-.095-.278-.035v.237l-.121.096A2.4 2.4 0 0 0-.726.221v.351l-.07.061C-.844.566-.924.515-1.059.583v.272c-.134.11-.277.222-.438.333h-.054c-.142.104-.232.439-.387.357l-.071.381c-.071.031-.178.053-.387.09a.12.12 0 0 1-.101-.094l-.085.125-.083.014-.061.122h-.161c-.546.905-.566.313-.785.658l.03.3c-.057.052-.128.058-.133-.028a1.33 1.33 0 0 0-.445.607c-.189-.051-.816.551-1.195.926-.045.018-.082.014-.095-.027l.002.119-.075.075c-.056-.069-.132-.107-.192-.038l-.182.258c.033-.021.101.005.089.05l-.384.054c.134.213-.894.742-.423.726l-.305.043.006.146c-.08.001-.324-.068-.521.077-.046.033.041.131.039.158l-.052.265-.199-.251c-.163.409-.338.613-.516.755l-.074.054c-.241.17-.484.259-.704.615-.112.043-.246.188-.373.349-.125.008-.261.001-.343.08-.073.069-.587.714-.503.847a1 1 0 0 1-.117.077l-.128-.139c-.43.594-.879.777-1.352 1.131l-.255-.066c-.074.048-.107.216-.131.386l-.179-.112.026.358a3 3 0 0 0-.278.345c.016-.803-.295.69-.865.576l-.069.365-.277.238c.08-.048-.026.052-.139.158-.061.02-.079.056-.099.094l-.066.067-.026-.319h-.093c-.117.249-.112.569-.423.464l-.212.343-.106-.106-.105.344.078-.039c.095.129-.052.31-.184.33-.48.075-.572.395-.975.596l-.15-.132-.04.312c-.3.016-1.382 1.258-1.508 1.169l-.021.07c-.007.02-.04.146-.079.137-.161-.036-.356-.061-.535.179-.041.054-.259.412-.131.455l-.283-.015v.142l-.194.371-.098.067c-.22-.084-.687.406-1.178.915l.016-.155c-.287.217-.652.981-.991.932a1 1 0 0 1-.076.161l-.239.022-.071.286-.076.065c-.082-.083-.132.072-.161.208a1 1 0 0 0-.067.165l-.049-.003.002-.144h-.198v.093c.018.028.132.005-.002.196-.164.234-.418.176-.583-.091-.153.163-.077.783-.42.886-.001.001-.792.077-.638.442l-.116.196-.047.079-.268.051-.069.37-.258.229c.063-.053-.09-.33-.264-.094-.105.142.092.223.107.267l-.177.123-.024-.283h-.094l-.214.456.038.058-.253-.045-.186.302-.135-.061-.107.348.08-.04.014.096c-.19.117-.404.277-.625.452l-.716.256c0 .001-.043.193-.052.357-.243.19-.471.353-.658.448a.7.7 0 0 1-.233.284c-.062-.009-.122-.021-.16.003-.097.059-.206.268-.214.254a.75.75 0 0 0-.133.31c-.038-.061-.055-.159-.118-.155l-.053.174c-.085.053-.18-.132-.201-.107-.15.173-.357.312-.49.494-.451.088-.483.943-.899.884-.15.432-.784.485-.832.927-.287.265-.565.527-1.182.951h-.201l-.106.418-.134-.048-.013.108-.093-.041-.014.429-.176-.244-.119.566c.104-.622-1.005.278-1.005.415l.19.06a.4.4 0 0 1-.246-.028c-.091-.048-.202.025-.268.094l-.066.308h-.055l-.04-.255c-.197-.056-.197.372-.214.577a.24.24 0 0 0 .03.103 1 1 0 0 0-.083.09l-.014-.127-.148.068c-.153.129-.172.428-.174.616-.201-.341-.605.67-.939.497-.024.027-.158.177-.255.307-.576-.861-1.037-2.527-1.527-3.515l.034-.5c-.511-.276-.148-.628-.413-.988l-.085.133-.177-.274c.136-.119-.604-1.095-.528-1.157l-.252-.354.305.102c-.357-1.016-.854-1.989-1.223-2.982.138-.429-.32-.644-.28-1.051-.293-.582-.56-1.172-.873-1.685l-.605-1.446-.164-.229.112-.097c-.519-.389-.383-.363-.371-.916l-.29-.271.155-.567c-.581-.039-.088-.755-.536-.927l-.07.106-.152-.143c-.033-.119-.192-.71-.203-.896l-.181-.461c-.735-1.441-1.427-4.01-1.753-4.257-.172-.13.014-.445-.074-.641l-.214-.359c.02-.096.016-.208.078-.285.026-.032.13.085.118.045-.061-.191-.363-.261-.39-.46l.195-.032c.02-.048-.173-.164-.227-.152a6 6 0 0 0-.333-.869c.28-.236-.813-.804-.446-.892-.065-.138-.324-.78-.375-.778-.212-.395-.406-.807-.338-1.268-.332-.028-.432-.88-.554-1.099.022.051-.157-.19-.339-.24l-.012-.078.105-.042-.098-.035c-.018-.307-.513-1.873-.689-1.88l-.078-.328c-.121.171-.242-.127.029-.031l-.213-.235.024-.138-.225-.351.103-.091c-.026-.03-.159.028-.184-.003l-.068-.166-.125-.308.098-.008-.086-.221c-.027-.03-.308-.775-.285-.379-.032-.157-.129-.492-.206-.624l-.08-.046-.095-.02-.014-.316.082.123.037-.069-.173-.509-.14.052c-.033-.04.016-.174-.002-.224-.135-.354-.535-.615-.551-.993-.008-.196.1-.352-.054-.53-.454-.521-1.334-2.645-1.673-3.399v5.111c.208.233.412.628.614 1.118-.106-.167-.209-.299-.294-.056-.115.324.22.467.297.505l-.063.059.039.163c.032.133.117.446.239.524.407.262.039.36.227.628.077.109.179-.129.161-.072-.055.183.416 1.959.714 2.384.043.061.083.027.113-.019-.013.093-.043.156-.031.205l.105-.013.069.175c-.007.047.009.097.068.164l.101.233.033.105.075.314c.02-.069.113.055.126.054l.028.05c-.108.061-.271.066-.079.165l.076-.106.064.045.086.132-.073.005.055.128c-.011.06-.061.152-.089.118l.14.413c.003-.037.068-.085.127-.121l.061.135-.037.257c.059.001.128.064.185.073l.092.205-.056.322c.067-.034.139-.023.209.014l.248.538c-.12.102-.282.18-.026.188l-.009.423.213.249c.055-.004.158-.044.172-.109l.022.639c.126-.107.129-.086.138.067l.004.07c.347-.037-.072-.15-.014-.279a.2.2 0 0 1 .064-.04l.112.242c-.002.066.005.145.034.274-.182-.44-.074.36.045.62l.029.113c.048.043.117-.132.128-.142.07-.062.197.09.211.109.058.082.012.182-.03.255l-.051.088-.003-.21-.062.02.02.112-.07.01.002.088c.001.044.094.08.132.041.005.128-.081.528.156.434l.075.322.131-.02-.058.184c.002.04.097-.05.116-.015.068.129-.085.212-.04.338l.197.328.075-.06-.034.06c.153-.094.159.056.158.274l.167 1.129.086.082c.182-.065.094-.326.167-.173.113.235-.027.051.103.276.051.089-.053.177-.053.177l-.016.112.065.033-.03-.09c.027-.063.19-.088.206-.021.045.177-.051.081-.129.174l-.098.041.158.027.056.103c.028-.068-.01-.129.037-.194.039.015-.132.586.012.693l.101-.112c.021-.009.168.068.308.103.365.602.128 1.338.658 1.376l.033.101c-.051.082-.173.128-.203.199-.027.069.043.261.082.33l-.026.055c.142.047.526.879.827 1.606.169.596.278 1.058.24 1.152.13.022.267.227.388.481l.097.425c.001-.021.024-.046.055-.071q.057.149.105.286l-.009.057.131.303-.056.311c.25-.021.335.306.182.465.076.037.18.169.291.354.065.369.172 1.11.431 1.277.365.235.026.401.226.627.032.052.068.083.106.126l-.024.061c.018.047.075.065.129.076l.033.051-.108.117c-.026.073.04.258.081.329l-.026.056c.213.07 1.129 2.265 1.221 2.623a.2.2 0 0 1 .126.048l.154.425-.02.144-.069.011.143.424c.035.032.155.163.263.283l.142.371-.036.205a.2.2 0 0 1 .109-.018c.094.234.184.448.27.632-.092.072-.15.121.052.127l-.01.423.214.249c.057-.005.165-.047.173-.116l.006.211.002.052.012.377c.018.025.09.148.142.143l.081-.212.056.079.059.331c-.225-.545-.093.633.073.732.062.036.11-.125.129-.142.071-.062.198.09.212.11.056.082.011.18-.031.254l-.05.088-.004-.209-.061.018.02.113-.07.01.001.088c.001.043.095.08.132.041.005.128-.081.528.156.434l.076.322.13-.02-.057.185c.001.039.097-.051.115-.016.037.07-.036.266-.04.338l.198.328.074-.06-.033.06c.087-.016.282.161.229.306-.014.036-.07-.088-.1-.062-.135.119-.114.284-.114.284.299.092-.081.435.322.111l-.026.064-.03.106c-.034.143-.142.35-.025.438.706.529.51 1.306.633 1.396l.101-.112.131.383c.067-.079.185-.194.319-.296l-.009.167.108-.169.038.055c.03.019.074-.045.07-.079.206.125.655-.489.908-.372l.178-.252.134-.149.267-.037c-.04-.065.007-.154.093-.25l.215.006.02-.23c.23-.2.459-.381.268-.408l.291-.055-.01-.186.202.125.433-.209c.015-.059 0-.15-.048-.193l.017-.084c.069-.024.104-.074.133-.129l.156.197c-.062-1.072.889-.506.729-1.144l.3.114c.008-.064.038-.337.112-.372l.113.049.016-.516.316.179.034-.497c.004.272.369-.062.439.19l.176-.257h.209c.087-.153.161-.366.148-.548l.307-.085.189-.333.467-.255v-.241h.209c.044-.087-.176-.285-.015-.37l.369-.048c-.362-.271.357-.399.514-.386l.162-.419c.158-.108.492-.26.643-.048l.112-.419c.194-.115.335-.382.45-.565.053.2-.03.469-.134.639l.28-.202c.024-.164.297-.403.577-.796l.322-.062.084-.444.328-.284c-.06.071.076.421.297.122a.24.24 0 0 0 .055-.112l.056-.047.115.031q.04-.091.071-.185c.169-.143.365-.317.393-.393l.051.015c.221.088.396-.226.454-.398l.027-.202c.217-.185.474-.376.74-.458l.097-.151c.245-.127.531-.2.692-.416l.049-.381.228-.012.06-.086q.257-.264.502-.541a1.7 1.7 0 0 0 .464-.241c.213-.153.251-.436.449-.713l.107.053.023.119.027-.084c.007-.025.048-.179.095-.169.198.045.433.076.652-.216.111-.147-.032-.478.143-.533l.36-.002c-.119-.195.196-.437.54-.508.056-.012.062-.074.061-.146l.123-.201c.057-.009.056-.045.051-.083l.09-.146v.069l.245-.113-.081-.017.076-.279.11.201c.033-.089.839-.856 1.696-1.651q.095-.056.204-.111h.241l.098-.389.096-.088.093.032.017-.129.112.049-.001-.155.099-.089-.001.067.202-.063c.151-.121.509-.565.431-.388l.338-.059c-.031-.138.314-.6.491-.703-.032-.011-.083-.081.001-.106.117-.036.19.203.292.148.114-.062.11-.314.171-.409l.008.066c.045.021.086.104.127.076.1-.068.232-.29.178-.418l.199-.334.176-.032.148-.03.082-.433a2 2 0 0 0 .32-.17c.051.096.179.178.318-.011.03-.041.001-.123-.031-.207q.066-.058.129-.119l.016.195h.115l.26-.554-.039-.059.3.043.226-.367.164.074.131-.424-.098.049-.018-.132q.05-.084.094-.17l.153-.105.26.098c.317-.194.359-.383.864-.539v-.194l.23-.164c.032-.164.07-.409.191-.535l.703-.214c-.035-.374.439-.407.478-.349l.002-.052.148.026.023-.092c.113.027.162-.269.054-.217l.046-.191c.268-.526.726.425 1.157-.985l.428-.005V8.86h.19l-.179-.374.1-.007.338.219c.122-.175.154-.432.218-.618l.223-.034.06-.199c.092.012.213.068.376.182l.022-.353.097-.022a.2.2 0 0 0 .092-.133l.153-.123.032.126.032-.097.261-.179c-.054-.023-.073-.047-.07-.066l.051-.046c.067-.029.182-.035.221-.001l-.056.129c.076-.065.082-.106.056-.129l.14-.327.06-.096c.171-.061.328-.124.38-.296.267.038.302-.098.338-.23l.265-.014.05-.197.144-.287.097.035.016-.131.114.049.016-.522.082.342.244-.113-.081-.017.098-.519c.042.206.396-.043.455.176l.18-.26h.212c.546-.906.565-.313.785-.658l.082-.375c-.029.142.2.231.292.066.138-.247.425-.793.536-1.163l.058.023.157.246.166-.438.19.01-.027.055.043-.054.164-.359q.051-.026.1-.056l-.015.074c.023.006.032-.022.026-.049.125-.112.208-.195.254-.292.008-.017-.006-.051-.024-.085.113-.148.221-.228.305-.194.176.072.227-.291.284-.111l-.016-.205.059.047.279-.056-.096-.121.051-.112.027-.059.176.009-.11-.156.042-.095c.058-.115.283-.105.33.015L2.28.42l.042-.065.203-.02c.075-.161.045-.422.106-.603a.4.4 0 0 1 .057-.106.24.24 0 0 1 .118-.079l.242.098.046-.066.142.019c.016-.059.043-.184.08-.331q.127.002.284.046l-.138-.262.19-.275.063-.028.228-.272v-2.39c-.8.793-1.663 1.591-2.585 2.24l-.098.418c.023-.29-.212-.162-.349-.051-.125.103-.548.959-.647 1.14Q.124-.084 0 0m-39.988 29.588-.077-.047zM3.312-.734" style="fill:#04507c;fill-opacity:1;fill-rule:nonzero;stroke:none" transform="translate(65.198 26.347)"/><path d="M0 0c-.703-.935-.449-2.546-1.594-3.013-.13.478.539.786.3 1.148.383.383.075 1.112.749 1.277-.156.393.234.577.194.917C-.045.482-.118.138 0 0" style="fill:#04507c;fill-opacity:1;fill-rule:evenodd;stroke:none" transform="translate(30.197 49.877)"/><path d="m0 0 .016-.455c-.113-.003-.282-.038-.343.102C-.393-.099-.113.82 0 0" style="fill:#04507c;fill-opacity:1;fill-rule:evenodd;stroke:none" transform="translate(28.6 46.294)"/><path d="M0 0c.092-.196-.102-.316-.21-.462.058-.055.105-.081.121-.224-.078-.201-.249-.066-.449-.129.053.431.142.83.538.815" style="fill:#04507c;fill-opacity:1;fill-rule:evenodd;stroke:none" transform="translate(28.252 45.565)"/><path d="M0 0c-.621-.051-.059-.742-.534-.929l-.237.365C-.125-.456-.958.705-.133.563z" style="fill:#04507c;fill-opacity:1;fill-rule:evenodd;stroke:none" transform="translate(24.2 35.305)"/><path d="M0 0c-.418-.345-.033-.684-.308-.921-.207-.548-.673-.99-.623-1.614-.633.29.171.773.07 1.253.154.432.483.919.522 1.269z" style="fill:#04507c;fill-opacity:1;fill-rule:evenodd;stroke:none" transform="translate(22.955 32.788)"/><path d="M0 0c-.163-.204-.45-.101-.675-.137-.243.475.374.639.304 1.034C-.112.765.072.372 0 0" style="fill:#04507c;fill-opacity:1;fill-rule:evenodd;stroke:none" transform="translate(17.977 19.645)"/><path d="M0 0c.155-1.188-1.039-1.856-.798-3.099-.134-.204-.33-.267-.557-.247-.069 1.163.608 2.04.797 3.099.135.204.331.268.558.247" style="fill:#04507c;fill-opacity:1;fill-rule:evenodd;stroke:none" transform="translate(17.103 18.705)"/><path d="M0 0c.032-.112-.05-.172-.105-.23l-.683.089C-1.006.448-.019.54 0 0" style="fill:#04507c;fill-opacity:1;fill-rule:evenodd;stroke:none" transform="translate(15.67 14.332)"/><path d="M0 0c-.04-.485-.231-.662-.772-.596-.23.106.018.313.098.458.111.033.171-.05.23-.105C-.31-.04-.292.273 0 0" style="fill:#04507c;fill-opacity:1;fill-rule:evenodd;stroke:none" transform="translate(18.482 21.37)"/><path d="M0 0a.81.81 0 0 0-.316-.693c-.112-.033-.171.05-.23.105.163.205.029.797.546.588" style="fill:#04507c;fill-opacity:1;fill-rule:evenodd;stroke:none" transform="translate(30.47 51.137)"/><path d="M0 0c.032-.113-.051-.173-.105-.231l-.227-.008-.011.341C-.23.105-.062.14 0 0" style="fill:#04507c;fill-opacity:1;fill-rule:evenodd;stroke:none" transform="translate(24.735 36.945)"/><path d="M0 0c.004-.113.038-.283-.101-.345-.253-.037-.236.277-.242.447C-.23.105-.062.14 0 0" style="fill:#04507c;fill-opacity:1;fill-rule:evenodd;stroke:none" transform="translate(24.528 36.37)"/><path d="M0 0c-.157-.045-.24.071-.322.148-.084.156.144.403.305.329z" style="fill:#04507c;fill-opacity:1;fill-rule:evenodd;stroke:none" transform="translate(17.076 19.5)"/><path d="M0 0c.032-.113-.051-.173-.105-.231l-.227-.008-.011.341C-.23.105-.062.14 0 0" style="fill:#04507c;fill-opacity:1;fill-rule:evenodd;stroke:none" transform="translate(21.939 30.362)"/><path d="M0 0c.004-.114.038-.283-.101-.345-.253-.038-.236.276-.242.447C-.23.105-.062.14 0 0" style="fill:#04507c;fill-opacity:1;fill-rule:evenodd;stroke:none" transform="translate(21.732 29.786)"/><path d="m0 0-.01-.561-.177.003c-.084-.196.074-.632-.24-.657.048-.182-.073-.244-.183-.353-.057-.241-.032-.495-.038-.739l-.381.007c.176-.463-.558-.223-.038-.738-.398.085-.058-.495-.413-.477l-.002-.077-.254.005c-.111.303.16.221.211.455.025.116.306-.005.206.2-.21-.037-.115.202-.198.258.093-.021.079.149.079.202.162.005.173.209.308.2.03.043.036.1.028.152-.104.037-.27.049-.199.207.158.001-.007.279.157.252.146.211-.113.819.267.81l.004.204c.082.063.114.174.206.226l.003.127.206.2.008.458C-.279.353.738.422 0 0" style="fill:#04507c;fill-opacity:1;fill-rule:nonzero;stroke:none" transform="translate(23.446 33.933)"/><path d="m0 0-.023-.175c-.19.064-.165-.223-.364-.225-.011-.101-.096-.084-.105-.203-.152-.058-.041.186-.154.137-.095.365.338.088.189.449.291-.157.099.255.307.183A.4.4 0 0 0-.074.129C-.046.093-.023.04 0 0" style="fill:#04507c;fill-opacity:1;fill-rule:nonzero;stroke:none" transform="translate(24.67 36.581)"/><path d="M0 0c-.051-.279.332-.208.193-.589-.156.09-.1-.103-.205-.124C0-.874-.074-1.08.03-1.223l.019-.306c-.152.082-.133-.075-.205-.149.211-.577-.438-.462-.221-1.066l-.178.003c-.056-.123-.028-.277-.032-.407-.317.164-.121-.262-.384-.197l-.028-.152.203-.029c.057-.182-.105-.13-.182-.227l-.032-.355-.177.003-.035-.535c-.151.083-.134-.075-.205-.149l-.005-.255-.126.003-.035-.535c-.263.142-.428-.469-.59-.398-.082-.164.058-.518-.137-.608-.233.044-.085.431-.117.588.553.113-.083.482.061.61.239-.068.126.285.334.198.041.107.02.22.031.331.149-.059.097.137.205.124l.01.611c.421.087.044.808.322 1.013l.076-.001c-.015-.084-.006-.25.123-.206.104-.036.106.141.105.202l.177-.003c.096.232-.125.84.243.836-.063.077-.057.22-.2.156-.001.116.036.249.181.176-.067.399.205.443.266.733l.076-.001c.043.133.021.271.032.407l.204.047c-.027.124-.196.169-.198.284.125.039.216-.027.277-.132.103.077.15.202.133.329l-.203.029c-.045.15.036.238.182.251" style="fill:#04507c;fill-opacity:1;fill-rule:nonzero;stroke:none" transform="translate(20.977 28.253)"/><path d="M0 0a.37.37 0 0 1 .195-.437C.177-.517.144-.631.015-.586l-.037.149c-.149.091-.056-.105-.164-.126l.047-.148-.051.001c.175-.498-.477-.392-.219-.913l.051-.001c-.052-.109-.203-.045-.257-.174-.074-.18.057-.621-.163-.684l-.003-.179-.077-.024c.128-.027.02-.285.067-.383l-.078-.066c-.305-.013-.064-.341-.208-.465-.063-.182.097-.234.021-.435h-.071l-.093-.529c-.249.021-.217-.307-.536-.195-.142-.049-.067-.294-.083-.406-.381.189-.029-.643-.369-.758-.03-.216.06-.561-.089-.737-.307.181-.197-.127-.193-.133 0 0-.077-.315-.197-.064-.089.188-.171.003-.171.003l.01.585c.148-.063.097.133.205.124.025.178-.094.55.212.506.041.231-.126.888.194.94.089.199-.111.752.216.734l.028.203.305-.005c.026.15.006.387.209.404.014.115.113.424-.021.49l.058.118c.03.117.102.136.179.127l.035.56.178-.003c.044.243.023.492.038.738.157-.001.169.204.307.198-.015.12.211.263.032.331-.05.103.008-.028-.05.157.203.024.132-.053.301-.059.041.107.05.174.064.284.237-.081-.012.205.156.182l.024.242z" style="fill:#04507c;fill-opacity:1;fill-rule:nonzero;stroke:none" transform="translate(27.564 44.496)"/><path d="M0 0c-.156-.045-.239.071-.321.148-.084.156.144.401.304.328z" style="fill:#04507c;fill-opacity:1;fill-rule:evenodd;stroke:none" transform="translate(17.553 18.74)"/><path d="M0 0c-.162.084-.1-.111-.205-.124l-.012-.689c-.259-.038-.279.194-.247.387-.021.04-.09.044-.126.029C-.64-.42-.618-.509-.618-.55l-.178.003.003.178c.066.014.143-.014.203.022-.047.098-.103.138-.071.256.311.042.179.511.665.32z" style="fill:#04507c;fill-opacity:1;fill-rule:nonzero;stroke:none" transform="translate(21.638 29.009)"/><path d="M0 0v-10.938q0-3.963-1.084-5.659-1.428-2.22-5.579-2.219-5.35 0-6.463 3.598-.528 1.68-.528 4.28V0q0 2.14-1.098 2.489-.543.174-1.441.174v.682h7.69v-.682q-1.442 0-1.969-.523-.571-.555-.571-2.14v-10.938q0-4.724 2.24-6.072.898-.554 2.254-.554 2.938 0 4.009 1.823.87 1.49.87 4.803V0q0 1.586-.556 2.124-.543.539-1.983.539v.682h6.748v-.682q-1.812 0-2.254-.903Q-.001 1.189 0 0" style="fill:#04507c;fill-opacity:1;fill-rule:evenodd;stroke:none" transform="translate(99.082 67.286)"/><path d="M0 0v.555q1.198 0 1.698.539.514.554.513 1.886v8.973q0 1.172-.6 1.648-.47.365-1.611.46v.555l4.494.808v-4.359h.057q1.512 4.359 4.622 4.359 2.154 0 2.868-1.363.514-.983.514-3.614V2.98q0-1.87 1.055-2.251.47-.174 1.17-.174V0H8.061v.555q1.212 0 1.711.539.514.539.514 1.886v6.753q0 2.251-.143 2.774-.356 1.316-1.826 1.316-.97 0-1.983-1.364a9.3 9.3 0 0 1-1.241-2.313q-.6-1.587-.599-3.139V2.98q0-1.87 1.055-2.251Q6.02.555 6.72.555V0Z" style="fill:#04507c;fill-opacity:1;fill-rule:evenodd;stroke:none" transform="translate(101.01 48.787)"/><path d="M0 0q-.7 0-1.184.539-.485.539-.484 1.316 0 .792.47 1.331.485.555 1.198.555.712 0 1.185-.555.484-.539.484-1.331 0-.777-.484-1.316A1.54 1.54 0 0 0 0 0m-3.267-18.436v.555q1.198 0 1.698.539.513.554.513 1.886v8.973q0 1.189-.598 1.648-.457.365-1.613.46v.555l4.495.808v-12.444q0-1.87 1.055-2.251.47-.174 1.17-.174v-.555z" style="fill:#04507c;fill-opacity:1;fill-rule:evenodd;stroke:none" transform="translate(120.468 67.223)"/><path d="m0 0-4.479 11.842q-.772 2.028-1.612 2.599-.557.364-1.399.381v.586h6.178v-.586q-1.299 0-1.299-.777 0-.587.386-1.617l3.338-8.956 2.939 8.861q.328.983.328 1.395 0 .998-1.312 1.094v.586h5.279v-.586q-1.328-.096-1.898-.793-.385-.46-.956-2.092L1.37 0Z" style="fill:#04507c;fill-opacity:1;fill-rule:evenodd;stroke:none" transform="translate(130.634 48.47)"/><path d="M0 0h5.907q0 2.346-1.113 3.408-.629.586-1.67.587-1.926 0-2.768-2.33Q0 .698 0 0m8.132-9.02v-1.046q-1.426-.57-3.481-.571-4.623 0-6.249 3.725-.827 1.87-.828 4.55 0 7.467 5.936 7.466 2.995 0 4.323-2.409.669-1.237.669-3.044v-.713H0Q0-4.47 1.498-6.816q1.669-2.632 4.58-2.632 1.297 0 2.054.428" style="fill:#04507c;fill-opacity:1;fill-rule:evenodd;stroke:none" transform="translate(140.36 59.106)"/><path d="M0 0v.555q1.213 0 1.712.539.513.539.514 1.886v8.973q0 1.188-.6 1.664-.47.35-1.626.444v.555l4.508.808V11.92h.057q1.199 3.504 3.795 3.504.599 0 1.027-.428.443-.428.443-1.094 0-1.537-1.413-1.537-.441 0-.999.38-.542.396-.655.397-.614 0-1.356-1.189-.899-1.428-.899-4.027V2.98q0-1.87 1.056-2.251.47-.174 1.17-.174V0Z" style="fill:#04507c;fill-opacity:1;fill-rule:evenodd;stroke:none" transform="translate(150.197 48.787)"/><path d="M0 0h-.728q-.64 2.916-2.981 2.917-1.384 0-2.069-.856-.357-.46-.357-1.189 0-1.205 1.313-2.141.942-.57 2.839-1.727 1.455-.92 1.998-1.68.712-1 .713-2.632 0-2.3-1.741-3.456-1.426-.951-3.638-.951-2.197 0-3.766.57l-.2 3.647h.727q.785-3.155 3.453-3.155 1.084 0 1.941.714.94.777.941 1.949 0 1.125-1.198 2.14-.6.523-2.069 1.348-1.47.84-2.069 1.348-1.526 1.267-1.526 3.091 0 2.139 1.526 3.202 1.27.887 3.325.887 1.824 0 3.366-.554z" style="fill:#04507c;fill-opacity:1;fill-rule:evenodd;stroke:none" transform="translate(169.578 60.185)"/><path d="M0 0q-.7 0-1.184.539-.485.539-.484 1.316 0 .792.47 1.331.485.555 1.198.555t1.184-.555q.485-.539.485-1.331 0-.777-.485-1.316A1.53 1.53 0 0 0 0 0m-3.267-18.436v.555q1.198 0 1.698.539.513.554.513 1.886v8.973q0 1.189-.599 1.648-.456.365-1.612.46v.555l4.495.808v-12.444q0-1.87 1.055-2.251.47-.174 1.17-.174v-.555z" style="fill:#04507c;fill-opacity:1;fill-rule:evenodd;stroke:none" transform="translate(174.9 67.223)"/><path d="M0 0v-1.094q-.942-.126-1.413-.127-3.109 0-3.938 1.031-.698.856-.698 3.836v9.448h-2.368v1.094q2.539 0 3.423 2.092.457 1.11.457 2.822h.756v-4.914H0v-1.094h-3.781V2.727q0-1.618.571-2.251.584-.635 2.04-.635.128 0 1.17.159" style="fill:#04507c;fill-opacity:1;fill-rule:evenodd;stroke:none" transform="translate(187.113 49.69)"/><path d="M0 0v1.918q-5.107-.127-5.107-3.376 0-1.063.499-1.902.57-.952 1.484-.952 1.44 0 2.339 1.395Q0-1.68 0 0m4.323-4.708v-.682a8 8 0 0 0-2.127-.285Q0-5.675 0-3.281h-.058q-1.44-2.393-4.151-2.394-2.068 0-3.039 1.776-.457.839-.456 1.918 0 3.028 2.81 4.105 1.2.46 2.697.635L0 3.012v1.237q0 3.106-.799 4.058-.557.649-1.683.65-1.057 0-1.498-.349-.542-.428-.542-1.538 0-1.712-1.37-1.712-1.413 0-1.413 1.491 0 1.949 2.668 2.837 1.142.38 2.183.38 3.581 0 4.365-2.425.37-1.141.372-2.806v-8.116q0-1.554 1.255-1.554.27 0 .785.127" style="fill:#04507c;fill-opacity:1;fill-rule:evenodd;stroke:none" transform="translate(196.073 54.145)"/><path d="M0 0v-1.094q-.941-.126-1.412-.127-3.11 0-3.938 1.031-.699.856-.699 3.836v9.448h-2.368v1.094q2.539 0 3.424 2.092.456 1.11.456 2.822h.757v-4.914H0v-1.094h-3.78V2.727q0-1.618.57-2.251.585-.635 2.04-.635.129 0 1.17.159" style="fill:#04507c;fill-opacity:1;fill-rule:evenodd;stroke:none" transform="translate(208.935 49.69)"/><path d="M0 0v2.425h-.058Q-.343 1.458-1.412.729-2.469 0-3.425 0q-2.853 0-4.236 2.441-1.142 2.028-1.142 5.406 0 3.391 1.142 5.422 1.383 2.472 4.236 2.472 2.284 0 3.367-2.536H0v6.436q0 1.14-.628 1.632-.471.38-1.598.508v.554l4.508.778V3.472q0-1.19.6-1.665.442-.365 1.612-.491V.777Zm-6.192 7.847q0-3.964 1.199-5.659.699-1 1.954-.999 1.713 0 2.496 2.536.542 1.743.543 4.122 0 2.36-.543 4.121-.783 2.536-2.496 2.537-1.77 0-2.582-2.505-.571-1.728-.571-4.153" style="fill:#04507c;fill-opacity:1;fill-rule:evenodd;stroke:none" transform="translate(226.4 48.47)"/><path d="M0 0h-.971Q.399 1.6.399 3.028q0 .427-.542.555-.713.158-.984.491-.37.444-.371 1.189 0 .824.485 1.316.485.507 1.241.507 1.84 0 1.84-2.282 0-1.888-1.226-3.741Q.37.364 0 0" style="fill:#04507c;fill-opacity:1;fill-rule:evenodd;stroke:none" transform="translate(234.261 63.878)"/><path d="m0 0-3.281-9.987h6.519zm-9.815-18.531v.65q1.953 0 2.639 1.411.357.728.856 2.219L-.271 3.646H1.37l6.077-18.15q.77-2.284 1.813-2.965.612-.412 1.54-.412v-.65H3.21v.65q2.068 0 2.068 1.11 0 .586-.256 1.363l-1.369 4.121h-7.334l-1.255-3.899q-.358-1.11-.357-1.522 0-.888.984-1.078a5 5 0 0 1 1.085-.095v-.65z" style="fill:#04507c;fill-opacity:1;fill-rule:evenodd;stroke:none" transform="translate(247.157 67.285)"/><path d="M0 0v.555q1.213 0 1.713.539.513.539.513 1.886v16.344q0 1.157-.614 1.648-.47.364-1.612.492v.555l4.495.777V2.98q0-1.87 1.055-2.251.471-.174 1.17-.174V0Z" style="fill:#04507c;fill-opacity:1;fill-rule:evenodd;stroke:none" transform="translate(259.362 48.787)"/><path d="M0 0v1.918q-5.107-.127-5.107-3.376 0-1.063.499-1.902.57-.952 1.483-.952 1.44 0 2.34 1.395Q0-1.68 0 0m4.323-4.708v-.682a8 8 0 0 0-2.127-.285Q0-5.675 0-3.281h-.058q-1.44-2.393-4.151-2.394-2.07 0-3.039 1.776-.457.839-.456 1.918 0 3.028 2.81 4.105 1.2.46 2.697.635L0 3.012v1.237q0 3.106-.799 4.058-.557.649-1.683.65-1.057 0-1.498-.349-.542-.428-.542-1.538 0-1.712-1.371-1.712-1.412 0-1.412 1.491 0 1.949 2.668 2.837 1.142.38 2.183.38 3.58 0 4.365-2.425.37-1.141.372-2.806v-8.116q0-1.554 1.255-1.554.27 0 .785.127" style="fill:#04507c;fill-opacity:1;fill-rule:evenodd;stroke:none" transform="translate(274.608 54.145)"/><path d="M0 0v-.951q-1.283-.507-3.138-.507-3.739 0-5.621 2.25-1.797 2.156-1.798 6.056 0 4.724 2.725 6.515 1.412.919 3.596.92 1.767 0 2.953-.571 1.626-.777 1.626-2.489 0-1.554-1.369-1.554-.742 0-1.128.666-.228.397-.456 1.443-.314 1.394-2.012 1.395-2.154 0-3.053-2.314-.456-1.19-.456-2.948 0-4.646 3.067-7.023Q-3.594-.27-1.641-.27-.998-.27 0 0" style="fill:#04507c;fill-opacity:1;fill-rule:evenodd;stroke:none" transform="translate(290.188 49.928)"/><path d="M0 0v1.918q-5.107-.127-5.107-3.376 0-1.063.5-1.902.569-.952 1.483-.952 1.44 0 2.34 1.395Q0-1.68 0 0m4.322-4.708v-.682a8 8 0 0 0-2.125-.285Q0-5.675 0-3.281h-.058q-1.44-2.393-4.15-2.394-2.07 0-3.04 1.776-.456.839-.456 1.918 0 3.028 2.81 4.105 1.2.46 2.697.635L0 3.012v1.237q0 3.106-.799 4.058-.555.649-1.683.65-1.057 0-1.497-.349-.544-.428-.543-1.538 0-1.712-1.37-1.712-1.413 0-1.413 1.491 0 1.949 2.668 2.837 1.142.38 2.183.38 3.582 0 4.365-2.425.372-1.141.371-2.806v-8.116q0-1.554 1.256-1.554.27 0 .784.127" style="fill:#04507c;fill-opacity:1;fill-rule:evenodd;stroke:none" transform="translate(299.933 54.145)"/><path d="M0 0v.555q1.197 0 1.697.539.514.554.514 1.886v8.973q0 1.172-.599 1.648-.47.365-1.612.46v.555l4.494.808v-4.359h.056q1.513 4.359 4.623 4.359 2.153 0 2.868-1.363.514-.983.513-3.614V2.98q0-1.87 1.056-2.251.47-.174 1.17-.174V0H8.06v.555q1.212 0 1.711.539.515.539.515 1.886v6.753q0 2.251-.142 2.774-.358 1.316-1.827 1.316-.97 0-1.983-1.364a9.3 9.3 0 0 1-1.241-2.313q-.6-1.587-.599-3.139V2.98q0-1.87 1.055-2.251.471-.174 1.17-.174V0Z" style="fill:#04507c;fill-opacity:1;fill-rule:evenodd;stroke:none" transform="translate(305.783 48.787)"/><path d="M0 0v-1.094q-.942-.126-1.412-.127-3.11 0-3.938 1.031-.698.856-.699 3.836v9.448h-2.369v1.094q2.54 0 3.425 2.092.456 1.11.457 2.822h.756v-4.914H0v-1.094h-3.78V2.727q-.001-1.618.571-2.251.583-.635 2.04-.635.128 0 1.169.159" style="fill:#04507c;fill-opacity:1;fill-rule:evenodd;stroke:none" transform="translate(328.46 49.69)"/></g></svg>